<svg width="33" height="33" viewBox="0 0 33 33" fill="none" xmlns="http://www.w3.org/2000/svg">
<path d="M31.9741 27.0225C33.343 28.392 33.343 30.6046 31.9741 31.9741C31.2913 32.657 30.395 33 29.498 33C28.6016 33 27.7053 32.657 27.0225 31.9741L16.5004 21.4514L5.97833 31.9741C5.2955 32.657 4.39916 33 3.50281 33C2.60583 33 1.70949 32.657 1.02666 31.9741C-0.342219 30.6046 -0.342219 28.392 1.02666 27.0225L11.5494 16.5004L1.02666 5.97833C-0.342219 4.60882 -0.342219 2.39617 1.02666 1.02666C2.39617 -0.342219 4.60881 -0.342219 5.97833 1.02666L16.5004 11.5494L27.0225 1.02666C28.392 -0.342219 30.6046 -0.342219 31.9741 1.02666C33.343 2.39617 33.343 4.60882 31.9741 5.97833L21.4514 16.5004L31.9741 27.0225Z" fill="#EFEFEF"/>
</svg>
