<svg width="55" height="55" viewBox="0 0 55 55" fill="none" xmlns="http://www.w3.org/2000/svg">
<g clip-path="url(#clip0)">
<path d="M3.35241 53.5952C2.84313 53.5952 2.35328 53.3952 1.97892 53.0209C1.47919 52.5211 1.29002 51.8152 1.47285 51.1325L3.94581 41.9032C3.96998 41.8131 3.95773 41.7177 3.91208 41.6418C1.40485 37.469 0.0526273 32.6804 0.00127969 27.7941C-0.037607 24.0888 0.66794 20.474 2.09837 17.0498C3.47702 13.7495 5.46282 10.7753 8.00056 8.20972C10.5374 5.64502 13.4884 3.62764 16.7717 2.21364C20.1784 0.746367 23.7838 0.00161133 27.4877 0H27.4996C31.9439 0 36.3585 1.08475 40.2675 3.13747C44.0537 5.12563 47.3742 8.01818 49.8702 11.5021C50.1287 11.8631 50.0457 12.3652 49.6848 12.6238C49.3239 12.8824 48.8216 12.7993 48.5631 12.4385C43.7046 5.65641 35.8304 1.60778 27.4996 1.60778C27.4955 1.60778 27.4925 1.60778 27.4885 1.60778C20.5879 1.61079 14.0729 4.35692 9.14363 9.34033C4.21243 14.3257 1.53666 20.8734 1.60906 27.7771C1.6574 32.3778 2.93035 36.8859 5.29041 40.8138C5.55939 41.2615 5.63545 41.8103 5.49913 42.3194L3.02617 51.5485C2.98857 51.8579 3.14187 52.0109 3.45135 51.9737L12.6806 49.5008C13.1895 49.3644 13.7384 49.4404 14.1861 49.7093C14.6324 49.9774 15.0914 50.2347 15.5506 50.4739C15.9443 50.6792 16.0972 51.1646 15.892 51.5583C15.6868 51.9521 15.2013 52.105 14.8076 51.8998C14.3198 51.6455 13.8321 51.3723 13.3582 51.0875C13.2824 51.0418 13.1869 51.0298 13.0968 51.0536L3.86761 53.5266C3.69595 53.5728 3.52311 53.5952 3.35241 53.5952Z" fill="white"/>
<path d="M31.7852 44.2025C28.2237 44.2025 24.6702 42.8462 21.9878 40.1638L15.0189 33.195C13.5608 31.7367 12.4712 30.0182 11.7807 28.0869C11.6313 27.6688 11.8489 27.2086 12.267 27.0591C12.6851 26.9097 13.1452 27.1275 13.2947 27.5454C13.9045 29.2511 14.8671 30.7693 16.1559 32.0579L23.1248 39.0267C27.6431 43.5452 34.961 43.8075 39.7846 39.6242C40.45 39.1719 41.1402 38.4739 41.7558 37.8471C42.2857 37.3171 42.2857 36.458 41.7577 35.9302L36.8902 31.0628C36.6344 30.8069 36.2943 30.6662 35.9327 30.6662C35.571 30.6662 35.231 30.807 34.9752 31.0628L32.3167 33.7212C31.7501 34.2878 31.4534 35.0714 31.5027 35.8712L31.5375 36.437C31.5959 37.0919 30.9447 37.6593 30.3043 37.5099C28.9056 37.2237 27.6323 36.5387 26.6226 35.529L19.6537 28.5601C18.6442 27.5507 17.9592 26.2774 17.6728 24.8784C17.5232 24.238 18.0913 23.5865 18.7457 23.6454L19.3114 23.6801C20.1107 23.7293 20.8947 23.4327 21.4613 22.866L24.1198 20.2075C24.3756 19.9517 24.5164 19.6117 24.5164 19.25C24.5164 18.8883 24.3755 18.5483 24.1198 18.2927L19.2523 13.4252C18.7243 12.8973 17.8654 12.8971 17.3373 13.4252C16.7105 14.0409 16.0126 14.7303 15.5583 15.3983C13.4114 17.8737 12.3657 21.048 12.6137 24.3363C12.647 24.7791 12.3152 25.1651 11.8725 25.1984C11.4281 25.2305 11.0438 24.9 11.0105 24.4573C10.7312 20.7541 11.9037 17.1776 14.3123 14.3811C14.7886 13.6865 15.4589 13.0226 16.0518 12.4356C17.1354 11.1668 19.2279 11.0735 20.3893 12.2881L25.2568 17.1556C25.8162 17.7151 26.1243 18.4588 26.1243 19.25C26.1243 20.0413 25.8162 20.785 25.2568 21.3445L22.5983 24.0031C21.7701 24.8313 20.6473 25.2933 19.4833 25.2933C19.4725 25.2933 19.4618 25.2933 19.451 25.2932C19.7304 26.0922 20.1856 26.8185 20.7905 27.4233L27.7594 34.3922C28.3643 34.9971 29.0906 35.4523 29.8895 35.7317C29.8809 34.5561 30.3438 33.4203 31.1797 32.5845L33.8382 29.926C34.3976 29.3667 35.1414 29.0586 35.9326 29.0586C36.7237 29.0586 37.4675 29.3667 38.027 29.926L42.8945 34.7934C43.4539 35.3529 43.762 36.0968 43.762 36.8879C43.762 37.6791 43.4539 38.4229 42.8945 38.9824C42.2537 39.6274 41.5557 40.3526 40.8016 40.8706C38.2137 43.0993 34.9963 44.2025 31.7852 44.2025Z" fill="white"/>
<path d="M26.6929 14.9862C26.2575 14.9862 25.8996 14.6384 25.8896 14.2008C25.8788 13.7279 25.689 13.2836 25.3551 12.9498C25.0213 12.6159 24.577 12.426 24.104 12.4153C23.6601 12.4051 23.3085 12.037 23.3187 11.5932C23.3288 11.1557 23.6866 10.8077 24.122 10.8077C24.1282 10.8077 24.1345 10.8078 24.1408 10.8079C25.0294 10.8282 25.8644 11.1852 26.4921 11.8131C27.1197 12.4407 27.4767 13.2756 27.4971 14.164C27.5073 14.608 27.1557 14.976 26.7118 14.9862C26.7055 14.9861 26.6992 14.9862 26.6929 14.9862Z" fill="white"/>
<path d="M30.3953 14.5325C29.9806 14.5325 29.6288 14.2138 29.5949 13.7933C29.4891 12.4826 28.9181 11.2483 27.9873 10.3173C27.0565 9.38652 25.8221 8.81568 24.5115 8.70987C24.069 8.67421 23.7391 8.28642 23.7749 7.84384C23.8105 7.40137 24.1987 7.0719 24.6409 7.10725C26.3316 7.24378 27.9238 7.98005 29.1243 9.18059C30.3247 10.381 31.0611 11.9732 31.1975 13.664C31.2333 14.1065 30.9035 14.4942 30.4609 14.53C30.4389 14.5316 30.417 14.5325 30.3953 14.5325Z" fill="white"/>
<path d="M27.4962 55C27.3993 55 27.3029 54.9995 27.2059 54.9985C24.0733 54.9655 21.0042 54.4089 18.0839 53.344C17.6668 53.1919 17.4519 52.7305 17.604 52.3134C17.7562 51.8964 18.2176 51.6813 18.6346 51.8335C21.3834 52.8358 24.2728 53.3597 27.2228 53.3907C27.3138 53.3918 27.4051 53.3922 27.4961 53.3922C34.2994 53.3922 40.7401 50.7225 45.6597 45.8564C50.6432 40.9271 53.3894 34.4122 53.3924 27.5116C53.3943 23.2197 52.3247 18.9682 50.2994 15.2171C50.0884 14.8263 50.2342 14.3387 50.6249 14.1277C51.0155 13.9168 51.5033 14.0625 51.7141 14.4532C53.8659 18.4386 55.0022 22.9543 55.0002 27.5123C54.9986 31.2162 54.2538 34.8217 52.7865 38.2284C51.3724 41.5117 49.355 44.4627 46.7904 46.9994C44.2248 49.5371 41.2506 51.5229 37.9503 52.9015C34.6157 54.2944 31.0998 55 27.4962 55Z" fill="white"/>
</g>
<defs>
<clipPath id="clip0">
<rect width="55" height="55" fill="white"/>
</clipPath>
</defs>
</svg>
