<svg xmlns="http://www.w3.org/2000/svg" width="14.001" height="21" viewBox="0 0 14.001 21">
  <g id="Layer_1" data-name="Layer 1" transform="translate(0)">
    <path id="Path_47" data-name="Path 47" d="M7,0A7.079,7.079,0,0,0,0,7.149Q0,11.1,7,21q7-9.905,7-13.851A7.079,7.079,0,0,0,7,0ZM1.75,7.149A5.329,5.329,0,0,1,7,1.75a5.329,5.329,0,0,1,5.25,5.4c0,1.155-.717,4.042-5.25,10.771C2.467,11.191,1.75,8.3,1.75,7.149Z" transform="translate(0)" fill="#707070"/>
    <path id="Path_48" data-name="Path 48" d="M9.139,5.482a2.625,2.625,0,1,0,.639,3.657A2.625,2.625,0,0,0,9.139,5.482Zm-.079,3.15a1.75,1.75,0,1,1,.3-1.308A1.75,1.75,0,0,1,9.061,8.632Z" transform="translate(-0.626 -0.626)" fill="#707070"/>
  </g>
</svg>
