<svg id="menu" xmlns="http://www.w3.org/2000/svg" xmlns:xlink="http://www.w3.org/1999/xlink" width="512" height="512" viewBox="0 0 512 512">
  <defs>
    <radialGradient id="radial-gradient" cx="0.5" cy="0.5" r="0.66" gradientUnits="objectBoundingBox">
      <stop offset="0"/>
      <stop offset="1" stop-color="#009eff"/>
    </radialGradient>
  </defs>
  <path id="Path_1" data-name="Path 1" d="M512,256c0,141.387-114.613,256-256,256S0,397.387,0,256,114.613,0,256,0,512,114.613,512,256Zm0,0" fill="url(#radial-gradient)"/>
  <g id="Group_1" data-name="Group 1">
    <path id="Path_2" data-name="Path 2" d="M204.313,244.9H127.586A40.632,40.632,0,0,1,87,204.312V127.586A40.632,40.632,0,0,1,127.586,87h76.727A40.632,40.632,0,0,1,244.9,127.586v76.727A40.632,40.632,0,0,1,204.313,244.9ZM127.586,117A10.6,10.6,0,0,0,117,127.586v76.727A10.6,10.6,0,0,0,127.586,214.9h76.727A10.6,10.6,0,0,0,214.9,204.313V127.586A10.6,10.6,0,0,0,204.313,117Zm0,0" fill="#fff"/>
    <path id="Path_3" data-name="Path 3" d="M383.9,244.9H308.2a41.147,41.147,0,0,1-41.1-41.1V128.1A41.147,41.147,0,0,1,308.2,87h75.7A41.147,41.147,0,0,1,425,128.1v75.7a41.147,41.147,0,0,1-41.1,41.1ZM308.2,117a11.115,11.115,0,0,0-11.1,11.1v75.7a11.115,11.115,0,0,0,11.1,11.1h75.7A11.115,11.115,0,0,0,395,203.8V128.1A11.115,11.115,0,0,0,383.9,117Zm0,0" fill="#fff"/>
    <path id="Path_4" data-name="Path 4" d="M204.313,425H127.586A40.632,40.632,0,0,1,87,384.414V307.688A40.632,40.632,0,0,1,127.586,267.1h76.727A40.632,40.632,0,0,1,244.9,307.688v76.727A40.632,40.632,0,0,1,204.313,425ZM127.586,297.1A10.6,10.6,0,0,0,117,307.688v76.727A10.6,10.6,0,0,0,127.586,395h76.727A10.6,10.6,0,0,0,214.9,384.414V307.688A10.6,10.6,0,0,0,204.313,297.1Zm0,0" fill="#fff"/>
    <path id="Path_5" data-name="Path 5" d="M383.9,425H308.2a41.147,41.147,0,0,1-41.1-41.1V308.2a41.147,41.147,0,0,1,41.1-41.1h75.7A41.147,41.147,0,0,1,425,308.2v75.7A41.147,41.147,0,0,1,383.9,425ZM308.2,297.1a11.115,11.115,0,0,0-11.1,11.1v75.7A11.115,11.115,0,0,0,308.2,395h75.7A11.115,11.115,0,0,0,395,383.9V308.2a11.115,11.115,0,0,0-11.1-11.1Zm0,0" fill="#fff"/>
  </g>
</svg>
