<svg xmlns="http://www.w3.org/2000/svg" viewBox="0 0 51.67 49.97"><defs><style>.cls-1{fill:#2e9ed9;}</style></defs><title>Asset 2</title><g id="Layer_2" data-name="Layer 2"><g id="Layer_1-2" data-name="Layer 1"><path class="cls-1" d="M6.14,16.39a3.07,3.07,0,1,0-3.08,3.06A3.06,3.06,0,0,0,6.14,16.39Z"/><path class="cls-1" d="M3.49,8.77a.43.43,0,0,0-.43-.43.43.43,0,1,0,0,.85A.42.42,0,0,0,3.49,8.77Z"/><path class="cls-1" d="M4.2,1.15A1.14,1.14,0,1,0,3.06,2.28,1.13,1.13,0,0,0,4.2,1.15Z"/><path class="cls-1" d="M10.75,39.27a.07.07,0,0,0-.06-.07s-.06,0-.06.07a.06.06,0,0,0,.06.06A.06.06,0,0,0,10.75,39.27Z"/><path class="cls-1" d="M13,24a2.35,2.35,0,1,0-2.35,2.35A2.35,2.35,0,0,0,13,24Z"/><path class="cls-1" d="M13.52,16.39a2.84,2.84,0,1,0-2.83,2.83A2.83,2.83,0,0,0,13.52,16.39Z"/><path class="cls-1" d="M21.38,39.27a3.07,3.07,0,1,0-3.06,3.06A3.06,3.06,0,0,0,21.38,39.27Z"/><path class="cls-1" d="M21.41,31.64a3.09,3.09,0,1,0-3.09,3.08A3.09,3.09,0,0,0,21.41,31.64Z"/><path class="cls-1" d="M21.41,24a3.09,3.09,0,1,0-3.09,3.09A3.1,3.1,0,0,0,21.41,24Z"/><path class="cls-1" d="M21.41,16.39a3.09,3.09,0,1,0-3.09,3.09A3.1,3.1,0,0,0,21.41,16.39Z"/><path class="cls-1" d="M29,46.89A3.09,3.09,0,1,0,25.94,50,3.09,3.09,0,0,0,29,46.89Z"/><path class="cls-1" d="M29,39.27a3.09,3.09,0,1,0-3.09,3.08A3.08,3.08,0,0,0,29,39.27Z"/><path class="cls-1" d="M29,31.64a3.09,3.09,0,1,0-3.09,3.08A3.08,3.08,0,0,0,29,31.64Z"/><path class="cls-1" d="M29,24a3.09,3.09,0,1,0-3.09,3.09A3.09,3.09,0,0,0,29,24Z"/><path class="cls-1" d="M29,16.39a3.09,3.09,0,1,0-3.09,3.09A3.09,3.09,0,0,0,29,16.39Z"/><path class="cls-1" d="M26.81,8.77a.87.87,0,1,0-1.73,0,.87.87,0,0,0,1.73,0Z"/><path class="cls-1" d="M36.65,46.89A3.09,3.09,0,1,0,33.57,50,3.08,3.08,0,0,0,36.65,46.89Z"/><path class="cls-1" d="M36.65,39.27a3.09,3.09,0,1,0-3.08,3.08A3.08,3.08,0,0,0,36.65,39.27Z"/><path class="cls-1" d="M36.65,31.64a3.09,3.09,0,1,0-3.08,3.08A3.08,3.08,0,0,0,36.65,31.64Z"/><path class="cls-1" d="M36.65,24a3.09,3.09,0,1,0-3.08,3.09A3.09,3.09,0,0,0,36.65,24Z"/><path class="cls-1" d="M36.65,16.39a3.09,3.09,0,1,0-3.08,3.09A3.09,3.09,0,0,0,36.65,16.39Z"/><path class="cls-1" d="M34,8.77a.44.44,0,0,0-.43-.45.45.45,0,1,0,0,.9A.44.44,0,0,0,34,8.77Z"/><path class="cls-1" d="M44.28,24a3.09,3.09,0,1,0-3.09,3.09A3.09,3.09,0,0,0,44.28,24Z"/><path class="cls-1" d="M44.07,16.39a2.88,2.88,0,1,0-2.88,2.87A2.88,2.88,0,0,0,44.07,16.39Z"/><path class="cls-1" d="M51.67,24a2.86,2.86,0,1,0-2.86,2.86A2.85,2.85,0,0,0,51.67,24Z"/></g></g></svg>