<svg xmlns="http://www.w3.org/2000/svg" viewBox="0 0 226.77 97.97"><defs><style>.cls-1{fill:#f1f0f0;}</style></defs><title>Asset 4</title><g id="Layer_2" data-name="Layer 2"><g id="Layer_1-2" data-name="Layer 1"><path class="cls-1" d="M54.11,2.67a.57.57,0,0,0,.57-.56.58.58,0,0,0-.57-.57.57.57,0,0,0-.56.57.56.56,0,0,0,.56.56"/><path class="cls-1" d="M59.32,2.36a.26.26,0,1,0,0-.51.26.26,0,1,0,0,.51"/><path class="cls-1" d="M64.53,3.73a1.62,1.62,0,1,0-1.62-1.62,1.63,1.63,0,0,0,1.62,1.62"/><path class="cls-1" d="M69.73,3.58a1.48,1.48,0,1,0-1.46-1.47,1.47,1.47,0,0,0,1.46,1.47"/><path class="cls-1" d="M74.94,4.06A2,2,0,1,0,73,2.11a2,2,0,0,0,1.94,1.95"/><path class="cls-1" d="M80.15,4.22A2.11,2.11,0,1,0,78,2.11a2.1,2.1,0,0,0,2.11,2.11"/><path class="cls-1" d="M85.36,4.22a2.11,2.11,0,1,0-2.11-2.11,2.1,2.1,0,0,0,2.11,2.11"/><path class="cls-1" d="M90.57,4.22a2.11,2.11,0,1,0-2.11-2.11,2.1,2.1,0,0,0,2.11,2.11"/><path class="cls-1" d="M95.78,4.2a2.1,2.1,0,1,0-2.09-2.09A2.09,2.09,0,0,0,95.78,4.2"/><path class="cls-1" d="M116.61,3.38a1.27,1.27,0,1,0-1.27-1.27,1.27,1.27,0,0,0,1.27,1.27"/><path class="cls-1" d="M121.82,2.12s0,0,0,0l0,0,0,0s0,0,0,0"/><path class="cls-1" d="M153.07,3.36a1.26,1.26,0,1,0-1.25-1.25,1.25,1.25,0,0,0,1.25,1.25"/><path class="cls-1" d="M158.29,2.67a.56.56,0,0,0,.56-.56.57.57,0,1,0-1.13,0,.56.56,0,0,0,.57.56"/><path class="cls-1" d="M54.11,7.88a.57.57,0,0,0,.57-.56.56.56,0,0,0-.57-.56.55.55,0,0,0-.56.56.56.56,0,0,0,.56.56"/><path class="cls-1" d="M59.32,7.57a.26.26,0,1,0,0-.51.26.26,0,1,0,0,.51"/><path class="cls-1" d="M64.53,8.93a1.62,1.62,0,1,0-1.62-1.61,1.62,1.62,0,0,0,1.62,1.61"/><path class="cls-1" d="M69.73,8.79a1.48,1.48,0,1,0-1.46-1.47,1.47,1.47,0,0,0,1.46,1.47"/><path class="cls-1" d="M74.94,9.27A2,2,0,1,0,73,7.32a2,2,0,0,0,1.94,1.95"/><path class="cls-1" d="M80.15,9.43A2.11,2.11,0,1,0,78,7.32a2.11,2.11,0,0,0,2.11,2.11"/><path class="cls-1" d="M85.36,9.43a2.11,2.11,0,1,0-2.11-2.11,2.11,2.11,0,0,0,2.11,2.11"/><path class="cls-1" d="M90.57,9.43a2.11,2.11,0,1,0-2.11-2.11,2.11,2.11,0,0,0,2.11,2.11"/><path class="cls-1" d="M95.78,9.41a2.1,2.1,0,1,0-2.09-2.09,2.09,2.09,0,0,0,2.09,2.09"/><path class="cls-1" d="M116.61,8.59a1.28,1.28,0,1,0-1.27-1.27,1.27,1.27,0,0,0,1.27,1.27"/><path class="cls-1" d="M121.82,7.33h0a0,0,0,0,0,0,0,0,0,0,0,0,0,0h0"/><path class="cls-1" d="M153.07,8.57a1.26,1.26,0,1,0-1.25-1.25,1.25,1.25,0,0,0,1.25,1.25"/><path class="cls-1" d="M158.29,7.88a.56.56,0,0,0,.56-.56.57.57,0,0,0-1.13,0,.56.56,0,0,0,.57.56"/><path class="cls-1" d="M17.65,13.23a.71.71,0,1,0-.71-.71.71.71,0,0,0,.71.71"/><path class="cls-1" d="M38.48,13.36a.84.84,0,1,0-.83-.84.83.83,0,0,0,.83.84"/><path class="cls-1" d="M43.69,14.63a2.11,2.11,0,1,0-2.1-2.11,2.1,2.1,0,0,0,2.1,2.11"/><path class="cls-1" d="M54.11,12.68a.16.16,0,0,0,.16-.16.16.16,0,0,0-.32,0,.16.16,0,0,0,.16.16"/><path class="cls-1" d="M59.32,14.49a2,2,0,1,0-2-2,2,2,0,0,0,2,2"/><path class="cls-1" d="M64.53,14.39a1.87,1.87,0,1,0-1.87-1.87,1.86,1.86,0,0,0,1.87,1.87"/><path class="cls-1" d="M74.94,13.45a.93.93,0,1,0,0-1.85.93.93,0,0,0,0,1.85"/><path class="cls-1" d="M80.15,14.63A2.11,2.11,0,1,0,78,12.52a2.1,2.1,0,0,0,2.11,2.11"/><path class="cls-1" d="M85.36,14.63a2.11,2.11,0,1,0-2.11-2.11,2.1,2.1,0,0,0,2.11,2.11"/><path class="cls-1" d="M90.57,14.49a2,2,0,1,0-2-2,2,2,0,0,0,2,2"/><path class="cls-1" d="M101,12.66a.13.13,0,0,0,.13-.14.13.13,0,1,0-.26,0,.13.13,0,0,0,.13.14"/><path class="cls-1" d="M121.82,13a.52.52,0,0,0,.53-.52.53.53,0,0,0-.53-.52.52.52,0,0,0-.52.52.52.52,0,0,0,.52.52"/><path class="cls-1" d="M137.45,13.27a.75.75,0,1,0-.75-.75.75.75,0,0,0,.75.75"/><path class="cls-1" d="M142.66,12.86a.34.34,0,1,0-.34-.34.34.34,0,0,0,.34.34"/><path class="cls-1" d="M147.87,14.16a1.64,1.64,0,1,0-1.63-1.64,1.63,1.63,0,0,0,1.63,1.64"/><path class="cls-1" d="M153.07,14.63a2.11,2.11,0,1,0-2.1-2.11,2.1,2.1,0,0,0,2.1,2.11"/><path class="cls-1" d="M158.29,14.63a2.11,2.11,0,1,0-2.12-2.11,2.1,2.1,0,0,0,2.12,2.11"/><path class="cls-1" d="M163.49,14.63a2.11,2.11,0,1,0-2.11-2.11,2.1,2.1,0,0,0,2.11,2.11"/><path class="cls-1" d="M168.7,14.63a2.11,2.11,0,1,0-2.11-2.11,2.11,2.11,0,0,0,2.11,2.11"/><path class="cls-1" d="M173.9,14.63a2.11,2.11,0,1,0-2.1-2.11,2.11,2.11,0,0,0,2.1,2.11"/><path class="cls-1" d="M179.12,14a1.45,1.45,0,1,0-1.45-1.45A1.45,1.45,0,0,0,179.12,14"/><path class="cls-1" d="M184.32,14.62a2.1,2.1,0,1,0-2.09-2.1,2.1,2.1,0,0,0,2.09,2.1"/><path class="cls-1" d="M189.53,13.81a1.29,1.29,0,1,0-1.28-1.29,1.28,1.28,0,0,0,1.28,1.29"/><path class="cls-1" d="M194.74,13.11a.59.59,0,0,0,.58-.59.58.58,0,0,0-1.16,0,.59.59,0,0,0,.58.59"/><path class="cls-1" d="M7.23,19.83a2.1,2.1,0,1,0-2.09-2.1,2.1,2.1,0,0,0,2.09,2.1"/><path class="cls-1" d="M12.44,19.84a2.11,2.11,0,1,0-2.11-2.11,2.11,2.11,0,0,0,2.11,2.11"/><path class="cls-1" d="M17.65,19.84a2.11,2.11,0,1,0-2.11-2.11,2.11,2.11,0,0,0,2.11,2.11"/><path class="cls-1" d="M22.85,19.84a2.11,2.11,0,1,0-2.1-2.11,2.11,2.11,0,0,0,2.1,2.11"/><path class="cls-1" d="M28.07,19.84A2.11,2.11,0,1,0,26,17.73a2.1,2.1,0,0,0,2.11,2.11"/><path class="cls-1" d="M33.27,19.77a2,2,0,1,0-2-2,2,2,0,0,0,2,2"/><path class="cls-1" d="M38.48,19.84a2.11,2.11,0,1,0-2.11-2.11,2.1,2.1,0,0,0,2.11,2.11"/><path class="cls-1" d="M43.69,19.84a2.11,2.11,0,1,0-2.1-2.11,2.1,2.1,0,0,0,2.1,2.11"/><path class="cls-1" d="M48.91,19.84a2.11,2.11,0,1,0-2.12-2.11,2.11,2.11,0,0,0,2.12,2.11"/><path class="cls-1" d="M54.11,19.52a1.79,1.79,0,1,0-1.79-1.79,1.79,1.79,0,0,0,1.79,1.79"/><path class="cls-1" d="M59.32,18.76a1,1,0,1,0-1-1,1,1,0,0,0,1,1"/><path class="cls-1" d="M64.53,19.83a2.1,2.1,0,1,0-2.1-2.1,2.1,2.1,0,0,0,2.1,2.1"/><path class="cls-1" d="M74.94,19.74a2,2,0,1,0-2-2,2,2,0,0,0,2,2"/><path class="cls-1" d="M80.15,19.83a2.1,2.1,0,1,0-2.09-2.1,2.1,2.1,0,0,0,2.09,2.1"/><path class="cls-1" d="M90.57,17.88a.15.15,0,0,0,.15-.15.15.15,0,0,0-.3,0,.15.15,0,0,0,.15.15"/><path class="cls-1" d="M95.78,19.84a2.11,2.11,0,1,0-2.11-2.11,2.1,2.1,0,0,0,2.11,2.11"/><path class="cls-1" d="M116.61,19.84a2.11,2.11,0,1,0-2.11-2.11,2.11,2.11,0,0,0,2.11,2.11"/><path class="cls-1" d="M121.82,19.84a2.11,2.11,0,1,0-2.11-2.11,2.1,2.1,0,0,0,2.11,2.11"/><path class="cls-1" d="M127,17.94a.2.2,0,0,0,.2-.21.19.19,0,0,0-.2-.2.2.2,0,0,0-.2.2.2.2,0,0,0,.2.21"/><path class="cls-1" d="M132.24,19.84a2.11,2.11,0,1,0-2.11-2.11,2.1,2.1,0,0,0,2.11,2.11"/><path class="cls-1" d="M137.45,19.84a2.11,2.11,0,1,0-2.11-2.11,2.1,2.1,0,0,0,2.11,2.11"/><path class="cls-1" d="M142.66,19.84a2.11,2.11,0,1,0-2.11-2.11,2.11,2.11,0,0,0,2.11,2.11"/><path class="cls-1" d="M147.87,19.84a2.11,2.11,0,1,0-2.11-2.11,2.1,2.1,0,0,0,2.11,2.11"/><path class="cls-1" d="M153.07,19.84a2.11,2.11,0,1,0-2.1-2.11,2.1,2.1,0,0,0,2.1,2.11"/><path class="cls-1" d="M158.29,19.84a2.11,2.11,0,1,0-2.12-2.11,2.1,2.1,0,0,0,2.12,2.11"/><path class="cls-1" d="M163.49,19.84a2.11,2.11,0,1,0-2.11-2.11,2.1,2.1,0,0,0,2.11,2.11"/><path class="cls-1" d="M168.7,19.84a2.11,2.11,0,1,0-2.11-2.11,2.11,2.11,0,0,0,2.11,2.11"/><path class="cls-1" d="M173.9,19.84a2.11,2.11,0,1,0-2.1-2.11,2.11,2.11,0,0,0,2.1,2.11"/><path class="cls-1" d="M179.12,19.84A2.11,2.11,0,1,0,177,17.73a2.11,2.11,0,0,0,2.11,2.11"/><path class="cls-1" d="M184.32,19.84a2.11,2.11,0,1,0-2.11-2.11,2.1,2.1,0,0,0,2.11,2.11"/><path class="cls-1" d="M189.53,19.84a2.11,2.11,0,1,0-2.11-2.11,2.1,2.1,0,0,0,2.11,2.11"/><path class="cls-1" d="M194.74,19.84a2.11,2.11,0,1,0-2.11-2.11,2.1,2.1,0,0,0,2.11,2.11"/><path class="cls-1" d="M200,19.84a2.11,2.11,0,1,0-2.11-2.11A2.1,2.1,0,0,0,200,19.84"/><path class="cls-1" d="M205.16,19.84a2.11,2.11,0,1,0-2.11-2.11,2.11,2.11,0,0,0,2.11,2.11"/><path class="cls-1" d="M210.37,19.84a2.11,2.11,0,1,0-2.11-2.11,2.11,2.11,0,0,0,2.11,2.11"/><path class="cls-1" d="M215.58,18.23a.5.5,0,0,0,.49-.5.49.49,0,0,0-.49-.48.48.48,0,0,0-.49.48.49.49,0,0,0,.49.5"/><path class="cls-1" d="M2,25a2,2,0,1,0-2-2,2,2,0,0,0,2,2"/><path class="cls-1" d="M7.23,24a1.06,1.06,0,1,0,0-2.11,1.06,1.06,0,0,0,0,2.11"/><path class="cls-1" d="M17.65,24.88a1.94,1.94,0,1,0-1.94-1.94,1.94,1.94,0,0,0,1.94,1.94"/><path class="cls-1" d="M22.85,25.05a2.11,2.11,0,1,0-2.1-2.11,2.11,2.11,0,0,0,2.1,2.11"/><path class="cls-1" d="M28.07,25A2.08,2.08,0,1,0,26,22.94,2.08,2.08,0,0,0,28.07,25"/><path class="cls-1" d="M33.27,25.05a2.11,2.11,0,1,0-2.1-2.11,2.1,2.1,0,0,0,2.1,2.11"/><path class="cls-1" d="M38.48,25.05a2.11,2.11,0,1,0-2.11-2.11,2.1,2.1,0,0,0,2.11,2.11"/><path class="cls-1" d="M43.69,25.05a2.11,2.11,0,1,0-2.1-2.11,2.1,2.1,0,0,0,2.1,2.11"/><path class="cls-1" d="M59.32,25.05a2.11,2.11,0,1,0-2.12-2.11,2.11,2.11,0,0,0,2.12,2.11"/><path class="cls-1" d="M64.53,25a2,2,0,1,0-2-2,2,2,0,0,0,2,2"/><path class="cls-1" d="M101,23.48a.54.54,0,0,0,0-1.07.54.54,0,1,0,0,1.07"/><path class="cls-1" d="M111.4,23a0,0,0,0,0,0,0,0,0,0,0,0,0,0,0,0,0,0,0,0,0,0,0,0,0,0,0,0"/><path class="cls-1" d="M116.61,23.14a.2.2,0,1,0,0-.4.2.2,0,1,0,0,.4"/><path class="cls-1" d="M121.82,25a2.08,2.08,0,1,0-2.08-2.08A2.08,2.08,0,0,0,121.82,25"/><path class="cls-1" d="M127,25.05a2.11,2.11,0,1,0-2.11-2.11A2.11,2.11,0,0,0,127,25.05"/><path class="cls-1" d="M132.24,25.05a2.11,2.11,0,1,0-2.11-2.11,2.1,2.1,0,0,0,2.11,2.11"/><path class="cls-1" d="M137.45,25.05a2.11,2.11,0,1,0-2.11-2.11,2.1,2.1,0,0,0,2.11,2.11"/><path class="cls-1" d="M142.66,25a2.1,2.1,0,1,0-2.1-2.1,2.1,2.1,0,0,0,2.1,2.1"/><path class="cls-1" d="M147.87,25.05a2.11,2.11,0,1,0-2.11-2.11,2.1,2.1,0,0,0,2.11,2.11"/><path class="cls-1" d="M153.07,25.05a2.11,2.11,0,1,0-2.1-2.11,2.1,2.1,0,0,0,2.1,2.11"/><path class="cls-1" d="M158.29,25.05a2.11,2.11,0,1,0-2.12-2.11,2.1,2.1,0,0,0,2.12,2.11"/><path class="cls-1" d="M163.49,25.05a2.11,2.11,0,1,0-2.11-2.11,2.1,2.1,0,0,0,2.11,2.11"/><path class="cls-1" d="M168.7,25.05a2.11,2.11,0,1,0-2.11-2.11,2.11,2.11,0,0,0,2.11,2.11"/><path class="cls-1" d="M173.9,25.05a2.11,2.11,0,1,0-2.1-2.11,2.11,2.11,0,0,0,2.1,2.11"/><path class="cls-1" d="M179.12,25.05A2.11,2.11,0,1,0,177,22.94a2.11,2.11,0,0,0,2.11,2.11"/><path class="cls-1" d="M184.32,25.05a2.11,2.11,0,1,0-2.11-2.11,2.1,2.1,0,0,0,2.11,2.11"/><path class="cls-1" d="M189.53,25.05a2.11,2.11,0,1,0-2.11-2.11,2.1,2.1,0,0,0,2.11,2.11"/><path class="cls-1" d="M194.74,25.05a2.11,2.11,0,1,0-2.11-2.11,2.1,2.1,0,0,0,2.11,2.11"/><path class="cls-1" d="M210.37,23a0,0,0,0,0,0,0,0,0,0,0,0,0,0,0,0,0,0,0,0,0,0,0,0,0,0,0,0"/><path class="cls-1" d="M17.65,28.64a.49.49,0,1,0-.49-.49.49.49,0,0,0,.49.49"/><path class="cls-1" d="M22.85,30.26a2.11,2.11,0,1,0-2.1-2.11,2.11,2.11,0,0,0,2.1,2.11"/><path class="cls-1" d="M28.07,30.26A2.11,2.11,0,1,0,26,28.15a2.1,2.1,0,0,0,2.11,2.11"/><path class="cls-1" d="M33.27,30.26a2.11,2.11,0,1,0-2.1-2.11,2.1,2.1,0,0,0,2.1,2.11"/><path class="cls-1" d="M38.48,30.23a2.08,2.08,0,1,0-2.07-2.08,2.08,2.08,0,0,0,2.07,2.08"/><path class="cls-1" d="M43.69,30.23a2.08,2.08,0,1,0-2.07-2.08,2.07,2.07,0,0,0,2.07,2.08"/><path class="cls-1" d="M48.91,30.26a2.11,2.11,0,1,0-2.12-2.11,2.11,2.11,0,0,0,2.12,2.11"/><path class="cls-1" d="M54.11,30.26A2.11,2.11,0,1,0,52,28.15a2.1,2.1,0,0,0,2.11,2.11"/><path class="cls-1" d="M59.32,30.26a2.11,2.11,0,1,0-2.12-2.11,2.11,2.11,0,0,0,2.12,2.11"/><path class="cls-1" d="M64.53,30.24a2.09,2.09,0,1,0-2.1-2.09,2.09,2.09,0,0,0,2.1,2.09"/><path class="cls-1" d="M101,28.39a.24.24,0,0,0,.24-.24.24.24,0,0,0-.24-.24.25.25,0,0,0-.25.24.25.25,0,0,0,.25.24"/><path class="cls-1" d="M106.2,28.57a.42.42,0,1,0-.42-.42.42.42,0,0,0,.42.42"/><path class="cls-1" d="M111.4,30.26a2.11,2.11,0,1,0-2.11-2.11,2.11,2.11,0,0,0,2.11,2.11"/><path class="cls-1" d="M116.61,30.26a2.11,2.11,0,1,0-2.11-2.11,2.11,2.11,0,0,0,2.11,2.11"/><path class="cls-1" d="M121.82,30.24a2.09,2.09,0,1,0-2.09-2.09,2.08,2.08,0,0,0,2.09,2.09"/><path class="cls-1" d="M127,30.26a2.11,2.11,0,1,0-2.11-2.11A2.11,2.11,0,0,0,127,30.26"/><path class="cls-1" d="M132.24,30.26a2.11,2.11,0,1,0-2.11-2.11,2.1,2.1,0,0,0,2.11,2.11"/><path class="cls-1" d="M137.45,30.26a2.11,2.11,0,1,0-2.11-2.11,2.1,2.1,0,0,0,2.11,2.11"/><path class="cls-1" d="M142.66,30.24a2.09,2.09,0,1,0-2.1-2.09,2.09,2.09,0,0,0,2.1,2.09"/><path class="cls-1" d="M147.87,30.26a2.11,2.11,0,1,0-2.11-2.11,2.1,2.1,0,0,0,2.11,2.11"/><path class="cls-1" d="M153.07,30.26a2.11,2.11,0,1,0-2.1-2.11,2.1,2.1,0,0,0,2.1,2.11"/><path class="cls-1" d="M158.29,30.24a2.09,2.09,0,1,0-2.11-2.09,2.08,2.08,0,0,0,2.11,2.09"/><path class="cls-1" d="M163.49,30.26a2.11,2.11,0,1,0-2.11-2.11,2.1,2.1,0,0,0,2.11,2.11"/><path class="cls-1" d="M168.7,30.26a2.11,2.11,0,1,0-2.11-2.11,2.11,2.11,0,0,0,2.11,2.11"/><path class="cls-1" d="M173.9,30.24a2.09,2.09,0,1,0-2.08-2.09,2.08,2.08,0,0,0,2.08,2.09"/><path class="cls-1" d="M179.12,30.26A2.11,2.11,0,1,0,177,28.15a2.11,2.11,0,0,0,2.11,2.11"/><path class="cls-1" d="M184.32,30.26a2.11,2.11,0,1,0-2.11-2.11,2.1,2.1,0,0,0,2.11,2.11"/><path class="cls-1" d="M189.53,30.24a2.09,2.09,0,1,0-2.09-2.09,2.09,2.09,0,0,0,2.09,2.09"/><path class="cls-1" d="M194.74,30.26a2.11,2.11,0,1,0-2.11-2.11,2.1,2.1,0,0,0,2.11,2.11"/><path class="cls-1" d="M200,29.56a1.41,1.41,0,1,0-1.41-1.41A1.42,1.42,0,0,0,200,29.56"/><path class="cls-1" d="M210.37,28.66a.51.51,0,0,0,0-1,.51.51,0,1,0,0,1"/><path class="cls-1" d="M226,28.28a.13.13,0,1,0,0-.26.13.13,0,0,0,0,.26"/><path class="cls-1" d="M17.65,35.22a1.87,1.87,0,1,0-1.86-1.86,1.86,1.86,0,0,0,1.86,1.86"/><path class="cls-1" d="M22.85,35.47a2.11,2.11,0,1,0-2.1-2.11,2.12,2.12,0,0,0,2.1,2.11"/><path class="cls-1" d="M28.07,35.47A2.11,2.11,0,1,0,26,33.36a2.11,2.11,0,0,0,2.11,2.11"/><path class="cls-1" d="M33.27,35.47a2.11,2.11,0,1,0-2.1-2.11,2.1,2.1,0,0,0,2.1,2.11"/><path class="cls-1" d="M38.48,35.47a2.11,2.11,0,1,0-2.11-2.11,2.11,2.11,0,0,0,2.11,2.11"/><path class="cls-1" d="M43.69,35.41a2.05,2.05,0,1,0-2-2,2.06,2.06,0,0,0,2,2"/><path class="cls-1" d="M48.91,35.47a2.11,2.11,0,1,0-2.12-2.11,2.11,2.11,0,0,0,2.12,2.11"/><path class="cls-1" d="M54.11,35.46a2.1,2.1,0,1,0-2.1-2.1,2.09,2.09,0,0,0,2.1,2.1"/><path class="cls-1" d="M59.32,35.16a1.81,1.81,0,1,0-1.81-1.8,1.8,1.8,0,0,0,1.81,1.8"/><path class="cls-1" d="M106.2,35.47a2.11,2.11,0,1,0-2.11-2.11,2.11,2.11,0,0,0,2.11,2.11"/><path class="cls-1" d="M111.4,35.44a2.08,2.08,0,1,0-2.08-2.08,2.08,2.08,0,0,0,2.08,2.08"/><path class="cls-1" d="M116.61,35.46a2.1,2.1,0,1,0-2.09-2.1,2.1,2.1,0,0,0,2.09,2.1"/><path class="cls-1" d="M121.82,35.47a2.11,2.11,0,1,0-2.11-2.11,2.11,2.11,0,0,0,2.11,2.11"/><path class="cls-1" d="M127,34.34a1,1,0,1,0-1-1,1,1,0,0,0,1,1"/><path class="cls-1" d="M132.24,35.44a2.08,2.08,0,1,0-2.08-2.08,2.08,2.08,0,0,0,2.08,2.08"/><path class="cls-1" d="M137.45,35.46a2.1,2.1,0,1,0-2.1-2.1,2.1,2.1,0,0,0,2.1,2.1"/><path class="cls-1" d="M142.66,35.47a2.11,2.11,0,1,0-2.11-2.11,2.12,2.12,0,0,0,2.11,2.11"/><path class="cls-1" d="M147.87,35.47a2.11,2.11,0,1,0-2.11-2.11,2.11,2.11,0,0,0,2.11,2.11"/><path class="cls-1" d="M153.07,35.47a2.11,2.11,0,1,0-2.1-2.11,2.11,2.11,0,0,0,2.1,2.11"/><path class="cls-1" d="M158.29,35.05a1.69,1.69,0,1,0-1.69-1.69,1.69,1.69,0,0,0,1.69,1.69"/><path class="cls-1" d="M163.49,35.47a2.11,2.11,0,1,0-2.11-2.11,2.11,2.11,0,0,0,2.11,2.11"/><path class="cls-1" d="M168.7,35.46a2.1,2.1,0,1,0-2.09-2.1,2.09,2.09,0,0,0,2.09,2.1"/><path class="cls-1" d="M173.9,35.47a2.11,2.11,0,1,0-2.1-2.11,2.12,2.12,0,0,0,2.1,2.11"/><path class="cls-1" d="M179.12,35.47A2.11,2.11,0,1,0,177,33.36a2.12,2.12,0,0,0,2.11,2.11"/><path class="cls-1" d="M184.32,35.47a2.11,2.11,0,1,0-2.11-2.11,2.11,2.11,0,0,0,2.11,2.11"/><path class="cls-1" d="M189.53,35.47a2.11,2.11,0,1,0-2.11-2.11,2.11,2.11,0,0,0,2.11,2.11"/><path class="cls-1" d="M194.74,35.47a2.11,2.11,0,1,0-2.11-2.11,2.11,2.11,0,0,0,2.11,2.11"/><path class="cls-1" d="M200,35.47a2.11,2.11,0,1,0-2.11-2.11A2.11,2.11,0,0,0,200,35.47"/><path class="cls-1" d="M205.16,33.72a.37.37,0,0,0,.37-.37.37.37,0,0,0-.37-.35.36.36,0,0,0-.36.35.36.36,0,0,0,.36.37"/><path class="cls-1" d="M210.37,33.49a.13.13,0,0,0,.13-.14.13.13,0,0,0-.26,0,.13.13,0,0,0,.13.14"/><path class="cls-1" d="M17.65,40.66a2.1,2.1,0,1,0-2.09-2.09,2.08,2.08,0,0,0,2.09,2.09"/><path class="cls-1" d="M22.85,40.66a2.1,2.1,0,1,0-2.09-2.09,2.08,2.08,0,0,0,2.09,2.09"/><path class="cls-1" d="M28.07,40.65A2.08,2.08,0,1,0,26,38.57a2.08,2.08,0,0,0,2.09,2.08"/><path class="cls-1" d="M33.27,40.66a2.1,2.1,0,1,0-2.09-2.09,2.09,2.09,0,0,0,2.09,2.09"/><path class="cls-1" d="M38.48,40.66a2.1,2.1,0,1,0-2.09-2.09,2.09,2.09,0,0,0,2.09,2.09"/><path class="cls-1" d="M43.69,40.66a2.1,2.1,0,1,0-2.09-2.09,2.09,2.09,0,0,0,2.09,2.09"/><path class="cls-1" d="M48.91,40.63a2.07,2.07,0,1,0-2.07-2.06,2.05,2.05,0,0,0,2.07,2.06"/><path class="cls-1" d="M101,40.68a2.11,2.11,0,1,0-2.11-2.11A2.12,2.12,0,0,0,101,40.68"/><path class="cls-1" d="M106.2,39.15a.59.59,0,0,0,.57-.58.58.58,0,1,0-.57.58"/><path class="cls-1" d="M111.4,39.49a.93.93,0,1,0-.92-.92.93.93,0,0,0,.92.92"/><path class="cls-1" d="M116.61,38.86a.29.29,0,0,0,0-.58.29.29,0,1,0,0,.58"/><path class="cls-1" d="M121.82,38.84a.28.28,0,0,0,.28-.27.29.29,0,0,0-.28-.28.28.28,0,0,0-.27.28.27.27,0,0,0,.27.27"/><path class="cls-1" d="M127,40.68a2.11,2.11,0,1,0-2.11-2.11A2.12,2.12,0,0,0,127,40.68"/><path class="cls-1" d="M132.24,40.68a2.11,2.11,0,1,0-2.11-2.11,2.1,2.1,0,0,0,2.11,2.11"/><path class="cls-1" d="M137.45,40.63a2.07,2.07,0,1,0-2.07-2.06,2.06,2.06,0,0,0,2.07,2.06"/><path class="cls-1" d="M142.66,40.06a1.49,1.49,0,1,0-1.5-1.49,1.49,1.49,0,0,0,1.5,1.49"/><path class="cls-1" d="M147.87,40.68a2.11,2.11,0,1,0-2.11-2.11,2.11,2.11,0,0,0,2.11,2.11"/><path class="cls-1" d="M153.07,40.66A2.1,2.1,0,1,0,151,38.57a2.09,2.09,0,0,0,2.09,2.09"/><path class="cls-1" d="M158.29,40.65a2.08,2.08,0,1,0-2.09-2.08,2.09,2.09,0,0,0,2.09,2.08"/><path class="cls-1" d="M163.49,40.68a2.11,2.11,0,1,0-2.11-2.11,2.11,2.11,0,0,0,2.11,2.11"/><path class="cls-1" d="M168.7,40.68a2.11,2.11,0,1,0-2.11-2.11,2.12,2.12,0,0,0,2.11,2.11"/><path class="cls-1" d="M173.9,40.68a2.11,2.11,0,1,0-2.1-2.11,2.12,2.12,0,0,0,2.1,2.11"/><path class="cls-1" d="M179.12,40.68A2.11,2.11,0,1,0,177,38.57a2.12,2.12,0,0,0,2.11,2.11"/><path class="cls-1" d="M184.32,40.68a2.11,2.11,0,1,0-2.11-2.11,2.11,2.11,0,0,0,2.11,2.11"/><path class="cls-1" d="M189.53,40.68a2.11,2.11,0,1,0-2.11-2.11,2.11,2.11,0,0,0,2.11,2.11"/><path class="cls-1" d="M194.74,39.58a1,1,0,1,0-1-1,1,1,0,0,0,1,1"/><path class="cls-1" d="M17.65,45.89a2.11,2.11,0,1,0-2.11-2.11,2.12,2.12,0,0,0,2.11,2.11"/><path class="cls-1" d="M22.85,45.89a2.11,2.11,0,1,0-2.1-2.11,2.12,2.12,0,0,0,2.1,2.11"/><path class="cls-1" d="M33.27,45.89a2.11,2.11,0,1,0-2.1-2.11,2.1,2.1,0,0,0,2.1,2.11"/><path class="cls-1" d="M38.48,45.89a2.11,2.11,0,1,0-2.11-2.11,2.11,2.11,0,0,0,2.11,2.11"/><path class="cls-1" d="M43.69,45.87a2.1,2.1,0,1,0-2.09-2.09,2.1,2.1,0,0,0,2.09,2.09"/><path class="cls-1" d="M101,45.89a2.11,2.11,0,1,0-2.11-2.11A2.12,2.12,0,0,0,101,45.89"/><path class="cls-1" d="M106.2,45.89a2.11,2.11,0,1,0-2.11-2.11,2.11,2.11,0,0,0,2.11,2.11"/><path class="cls-1" d="M111.4,45.71a1.94,1.94,0,1,0-1.93-1.93,1.93,1.93,0,0,0,1.93,1.93"/><path class="cls-1" d="M132.24,45.89a2.11,2.11,0,1,0-2.11-2.11,2.1,2.1,0,0,0,2.11,2.11"/><path class="cls-1" d="M137.45,45.87a2.1,2.1,0,1,0-2.1-2.09,2.1,2.1,0,0,0,2.1,2.09"/><path class="cls-1" d="M142.66,45.89a2.11,2.11,0,1,0-2.11-2.11,2.12,2.12,0,0,0,2.11,2.11"/><path class="cls-1" d="M147.87,45.89a2.11,2.11,0,1,0-2.11-2.11,2.11,2.11,0,0,0,2.11,2.11"/><path class="cls-1" d="M153.07,45.89a2.11,2.11,0,1,0-2.1-2.11,2.11,2.11,0,0,0,2.1,2.11"/><path class="cls-1" d="M158.29,45.89a2.11,2.11,0,1,0-2.12-2.11,2.11,2.11,0,0,0,2.12,2.11"/><path class="cls-1" d="M163.49,45.87a2.1,2.1,0,1,0-2.09-2.09,2.09,2.09,0,0,0,2.09,2.09"/><path class="cls-1" d="M168.7,45.87a2.1,2.1,0,1,0-2.09-2.09,2.09,2.09,0,0,0,2.09,2.09"/><path class="cls-1" d="M173.9,45.87a2.1,2.1,0,1,0-2.08-2.09,2.09,2.09,0,0,0,2.08,2.09"/><path class="cls-1" d="M179.12,45.87a2.1,2.1,0,1,0-2.1-2.09,2.1,2.1,0,0,0,2.1,2.09"/><path class="cls-1" d="M184.32,45.87a2.1,2.1,0,1,0-2.09-2.09,2.1,2.1,0,0,0,2.09,2.09"/><path class="cls-1" d="M189.53,45.87a2.1,2.1,0,1,0-2.09-2.09,2.1,2.1,0,0,0,2.09,2.09"/><path class="cls-1" d="M200,44a.21.21,0,0,0,.22-.21.22.22,0,0,0-.44,0A.21.21,0,0,0,200,44"/><path class="cls-1" d="M205.16,45.34a1.56,1.56,0,1,0-1.56-1.56,1.56,1.56,0,0,0,1.56,1.56"/><path class="cls-1" d="M17.65,50.26A1.28,1.28,0,1,0,16.37,49a1.27,1.27,0,0,0,1.28,1.28"/><path class="cls-1" d="M22.85,51.09A2.11,2.11,0,1,0,20.75,49a2.11,2.11,0,0,0,2.1,2.11"/><path class="cls-1" d="M28.07,51.08A2.1,2.1,0,1,0,26,49a2.1,2.1,0,0,0,2.1,2.1"/><path class="cls-1" d="M95.78,50.76A1.78,1.78,0,1,0,94,49a1.77,1.77,0,0,0,1.78,1.78"/><path class="cls-1" d="M101,51.09A2.11,2.11,0,1,0,98.88,49,2.11,2.11,0,0,0,101,51.09"/><path class="cls-1" d="M106.2,51.09A2.11,2.11,0,1,0,104.09,49a2.1,2.1,0,0,0,2.11,2.11"/><path class="cls-1" d="M111.4,51.08a2.1,2.1,0,1,0-2.09-2.1,2.1,2.1,0,0,0,2.09,2.1"/><path class="cls-1" d="M116.61,51.09A2.11,2.11,0,1,0,114.5,49a2.11,2.11,0,0,0,2.11,2.11"/><path class="cls-1" d="M121.82,51.09A2.11,2.11,0,1,0,119.71,49a2.1,2.1,0,0,0,2.11,2.11"/><path class="cls-1" d="M127,51.09A2.11,2.11,0,1,0,124.92,49,2.11,2.11,0,0,0,127,51.09"/><path class="cls-1" d="M132.24,51.09A2.11,2.11,0,1,0,130.13,49a2.1,2.1,0,0,0,2.11,2.11"/><path class="cls-1" d="M137.45,51.09A2.11,2.11,0,1,0,135.34,49a2.1,2.1,0,0,0,2.11,2.11"/><path class="cls-1" d="M142.66,50.46A1.48,1.48,0,1,0,141.19,49a1.47,1.47,0,0,0,1.47,1.48"/><path class="cls-1" d="M147.87,51.09A2.11,2.11,0,1,0,145.76,49a2.1,2.1,0,0,0,2.11,2.11"/><path class="cls-1" d="M153.07,51.09A2.11,2.11,0,1,0,151,49a2.1,2.1,0,0,0,2.1,2.11"/><path class="cls-1" d="M158.29,51.08a2.1,2.1,0,1,0-2.11-2.1,2.09,2.09,0,0,0,2.11,2.1"/><path class="cls-1" d="M163.49,51.09A2.11,2.11,0,1,0,161.38,49a2.1,2.1,0,0,0,2.11,2.11"/><path class="cls-1" d="M168.7,51.08a2.1,2.1,0,1,0-2.09-2.1,2.09,2.09,0,0,0,2.09,2.1"/><path class="cls-1" d="M173.9,51.08a2.1,2.1,0,1,0-2.08-2.1,2.09,2.09,0,0,0,2.08,2.1"/><path class="cls-1" d="M179.12,51.09A2.11,2.11,0,1,0,177,49a2.11,2.11,0,0,0,2.11,2.11"/><path class="cls-1" d="M184.32,51.09A2.11,2.11,0,1,0,182.21,49a2.1,2.1,0,0,0,2.11,2.11"/><path class="cls-1" d="M189.53,51.09A2.11,2.11,0,1,0,187.42,49a2.1,2.1,0,0,0,2.11,2.11"/><path class="cls-1" d="M194.74,51.09A2.11,2.11,0,1,0,192.63,49a2.1,2.1,0,0,0,2.11,2.11"/><path class="cls-1" d="M22.85,56.26A2.07,2.07,0,1,0,20.8,54.2a2.07,2.07,0,0,0,2.05,2.06"/><path class="cls-1" d="M28.07,55.93a1.74,1.74,0,1,0-1.73-1.73,1.73,1.73,0,0,0,1.73,1.73"/><path class="cls-1" d="M38.48,54.21h0a0,0,0,0,0,0,0,0,0,0,0,0,0,0h0"/><path class="cls-1" d="M90.57,54.24a0,0,0,0,0,0,0,0,0,0,0,0,0-.05,0,0,0,0,0,0,.05,0,0,0,0,0,0,0"/><path class="cls-1" d="M95.78,56.3a2.11,2.11,0,1,0-2.11-2.11,2.1,2.1,0,0,0,2.11,2.11"/><path class="cls-1" d="M101,56.3a2.11,2.11,0,1,0-2.11-2.11A2.11,2.11,0,0,0,101,56.3"/><path class="cls-1" d="M106.2,56.3a2.11,2.11,0,1,0-2.11-2.11,2.1,2.1,0,0,0,2.11,2.11"/><path class="cls-1" d="M111.4,56.29a2.1,2.1,0,1,0-2.09-2.1,2.1,2.1,0,0,0,2.09,2.1"/><path class="cls-1" d="M116.61,56.29a2.1,2.1,0,1,0-2.09-2.1,2.1,2.1,0,0,0,2.09,2.1"/><path class="cls-1" d="M121.82,56.3a2.11,2.11,0,1,0-2.11-2.11,2.1,2.1,0,0,0,2.11,2.11"/><path class="cls-1" d="M127,56.3a2.11,2.11,0,1,0-2.11-2.11A2.11,2.11,0,0,0,127,56.3"/><path class="cls-1" d="M132.24,54.36a.17.17,0,0,0,.17-.16.17.17,0,1,0-.34,0,.17.17,0,0,0,.17.16"/><path class="cls-1" d="M137.45,56.3a2.11,2.11,0,1,0-2.11-2.11,2.1,2.1,0,0,0,2.11,2.11"/><path class="cls-1" d="M142.66,56.3a2.11,2.11,0,1,0-2.11-2.11,2.11,2.11,0,0,0,2.11,2.11"/><path class="cls-1" d="M147.87,56.3a2.11,2.11,0,1,0-2.11-2.11,2.1,2.1,0,0,0,2.11,2.11"/><path class="cls-1" d="M158.29,56a1.82,1.82,0,1,0-1.82-1.82A1.81,1.81,0,0,0,158.29,56"/><path class="cls-1" d="M163.49,56.3a2.11,2.11,0,1,0-2.11-2.11,2.1,2.1,0,0,0,2.11,2.11"/><path class="cls-1" d="M168.7,56.3a2.11,2.11,0,1,0-2.11-2.11,2.11,2.11,0,0,0,2.11,2.11"/><path class="cls-1" d="M173.9,55.81a1.62,1.62,0,1,0-1.61-1.62,1.61,1.61,0,0,0,1.61,1.62"/><path class="cls-1" d="M179.12,56.29a2.1,2.1,0,1,0-2.1-2.1,2.1,2.1,0,0,0,2.1,2.1"/><path class="cls-1" d="M184.32,56.27a2.08,2.08,0,1,0-2.07-2.08,2.07,2.07,0,0,0,2.07,2.08"/><path class="cls-1" d="M189.53,56.3a2.11,2.11,0,1,0-2.11-2.11,2.1,2.1,0,0,0,2.11,2.11"/><path class="cls-1" d="M28.07,61.51A2.11,2.11,0,1,0,26,59.4a2.1,2.1,0,0,0,2.11,2.11"/><path class="cls-1" d="M33.27,61.5a2.1,2.1,0,1,0-2.09-2.1,2.1,2.1,0,0,0,2.09,2.1"/><path class="cls-1" d="M90.57,60.41a1,1,0,1,0-1-1,1,1,0,0,0,1,1"/><path class="cls-1" d="M95.78,61.51a2.11,2.11,0,1,0-2.11-2.11,2.1,2.1,0,0,0,2.11,2.11"/><path class="cls-1" d="M101,61.51a2.11,2.11,0,1,0-2.11-2.11A2.11,2.11,0,0,0,101,61.51"/><path class="cls-1" d="M106.2,61.5a2.1,2.1,0,1,0-2.1-2.1,2.1,2.1,0,0,0,2.1,2.1"/><path class="cls-1" d="M111.4,61.51a2.11,2.11,0,1,0-2.11-2.11,2.11,2.11,0,0,0,2.11,2.11"/><path class="cls-1" d="M116.61,61.51a2.11,2.11,0,1,0-2.11-2.11,2.11,2.11,0,0,0,2.11,2.11"/><path class="cls-1" d="M121.82,61.51a2.11,2.11,0,1,0-2.11-2.11,2.1,2.1,0,0,0,2.11,2.11"/><path class="cls-1" d="M127,61.51a2.11,2.11,0,1,0-2.11-2.11A2.11,2.11,0,0,0,127,61.51"/><path class="cls-1" d="M132.24,61.51a2.11,2.11,0,1,0-2.11-2.11,2.1,2.1,0,0,0,2.11,2.11"/><path class="cls-1" d="M137.45,61.48a2.08,2.08,0,1,0-2.08-2.08,2.08,2.08,0,0,0,2.08,2.08"/><path class="cls-1" d="M142.66,61.51a2.11,2.11,0,1,0-2.11-2.11,2.11,2.11,0,0,0,2.11,2.11"/><path class="cls-1" d="M163.49,61.51a2.11,2.11,0,1,0-2.11-2.11,2.1,2.1,0,0,0,2.11,2.11"/><path class="cls-1" d="M168.7,59.42s0,0,0,0h0s0,0,0,0"/><path class="cls-1" d="M179.12,60.66a1.26,1.26,0,1,0-1.26-1.26,1.26,1.26,0,0,0,1.26,1.26"/><path class="cls-1" d="M184.32,61.51a2.11,2.11,0,1,0-2.11-2.11,2.1,2.1,0,0,0,2.11,2.11"/><path class="cls-1" d="M38.48,65.1a.49.49,0,1,0-.49-.49.49.49,0,0,0,.49.49"/><path class="cls-1" d="M43.69,64.9a.29.29,0,1,0-.29-.29.29.29,0,0,0,.29.29"/><path class="cls-1" d="M48.91,66.72a2.11,2.11,0,1,0-2.12-2.11,2.11,2.11,0,0,0,2.12,2.11"/><path class="cls-1" d="M54.11,65.78a1.17,1.17,0,1,0-1.17-1.17,1.17,1.17,0,0,0,1.17,1.17"/><path class="cls-1" d="M95.78,66.72a2.11,2.11,0,1,0-2.11-2.11,2.1,2.1,0,0,0,2.11,2.11"/><path class="cls-1" d="M101,66.69a2.08,2.08,0,1,0-2.08-2.08A2.08,2.08,0,0,0,101,66.69"/><path class="cls-1" d="M106.2,66.71a2.1,2.1,0,1,0-2.1-2.1,2.1,2.1,0,0,0,2.1,2.1"/><path class="cls-1" d="M111.4,66.72a2.11,2.11,0,1,0-2.11-2.11,2.11,2.11,0,0,0,2.11,2.11"/><path class="cls-1" d="M116.61,66.72a2.11,2.11,0,1,0-2.11-2.11,2.11,2.11,0,0,0,2.11,2.11"/><path class="cls-1" d="M121.82,66.71a2.1,2.1,0,1,0-2.09-2.1,2.09,2.09,0,0,0,2.09,2.1"/><path class="cls-1" d="M127,66.72a2.11,2.11,0,1,0-2.11-2.11A2.11,2.11,0,0,0,127,66.72"/><path class="cls-1" d="M132.24,66.72a2.11,2.11,0,1,0-2.11-2.11,2.1,2.1,0,0,0,2.11,2.11"/><path class="cls-1" d="M137.45,66.71a2.1,2.1,0,1,0-2.1-2.1,2.1,2.1,0,0,0,2.1,2.1"/><path class="cls-1" d="M142.66,66.72a2.11,2.11,0,1,0-2.11-2.11,2.11,2.11,0,0,0,2.11,2.11"/><path class="cls-1" d="M163.49,66.37a1.76,1.76,0,1,0-1.76-1.76,1.76,1.76,0,0,0,1.76,1.76"/><path class="cls-1" d="M184.32,64.64a0,0,0,0,0,0,0,0,0,0,0,0,0,0,0,0,0,0,0,0,0,0,0,0,0,0,0,0"/><path class="cls-1" d="M194.74,64.63s0,0,0,0,0,0,0,0a0,0,0,0,0,0,0,0,0,0,0,0,0,0"/><path class="cls-1" d="M200,65.91a1.3,1.3,0,1,0-1.3-1.3,1.3,1.3,0,0,0,1.3,1.3"/><path class="cls-1" d="M43.69,71.93a2.11,2.11,0,1,0-2.1-2.11,2.1,2.1,0,0,0,2.1,2.11"/><path class="cls-1" d="M48.91,71.93a2.11,2.11,0,1,0-2.12-2.11,2.11,2.11,0,0,0,2.12,2.11"/><path class="cls-1" d="M54.11,71.93A2.11,2.11,0,1,0,52,69.82a2.1,2.1,0,0,0,2.11,2.11"/><path class="cls-1" d="M59.32,71.92a2.1,2.1,0,1,0-2.1-2.1,2.1,2.1,0,0,0,2.1,2.1"/><path class="cls-1" d="M95.78,69.83s0,0,0,0,0,0,0,0,0,0,0,0,0,0,0,0"/><path class="cls-1" d="M101,71.1a1.29,1.29,0,0,0,0-2.57,1.29,1.29,0,1,0,0,2.57"/><path class="cls-1" d="M111.4,71.93a2.11,2.11,0,1,0-2.11-2.11,2.11,2.11,0,0,0,2.11,2.11"/><path class="cls-1" d="M116.61,71.93a2.11,2.11,0,1,0-2.11-2.11,2.11,2.11,0,0,0,2.11,2.11"/><path class="cls-1" d="M121.82,71.92a2.1,2.1,0,1,0-2.09-2.1,2.1,2.1,0,0,0,2.09,2.1"/><path class="cls-1" d="M127,71.93a2.11,2.11,0,1,0-2.11-2.11A2.11,2.11,0,0,0,127,71.93"/><path class="cls-1" d="M132.24,71.92a2.1,2.1,0,1,0-2.1-2.1,2.11,2.11,0,0,0,2.1,2.1"/><path class="cls-1" d="M137.45,71.92a2.1,2.1,0,1,0-2.1-2.1,2.1,2.1,0,0,0,2.1,2.1"/><path class="cls-1" d="M179.12,71a1.2,1.2,0,1,0-1.2-1.2,1.19,1.19,0,0,0,1.2,1.2"/><path class="cls-1" d="M184.32,71.88a2.07,2.07,0,1,0-2.06-2.06,2.06,2.06,0,0,0,2.06,2.06"/><path class="cls-1" d="M194.74,70.92a1.1,1.1,0,1,0-1.1-1.1,1.1,1.1,0,0,0,1.1,1.1"/><path class="cls-1" d="M43.69,77.12A2.1,2.1,0,1,0,41.6,75a2.1,2.1,0,0,0,2.09,2.09"/><path class="cls-1" d="M48.91,77.12A2.1,2.1,0,1,0,46.81,75a2.09,2.09,0,0,0,2.1,2.09"/><path class="cls-1" d="M54.11,77.14A2.11,2.11,0,1,0,52,75a2.11,2.11,0,0,0,2.11,2.11"/><path class="cls-1" d="M59.32,77.14A2.11,2.11,0,1,0,57.2,75a2.12,2.12,0,0,0,2.12,2.11"/><path class="cls-1" d="M64.53,77.12A2.1,2.1,0,1,0,62.43,75a2.1,2.1,0,0,0,2.1,2.09"/><path class="cls-1" d="M111.4,77.12A2.1,2.1,0,1,0,109.31,75a2.1,2.1,0,0,0,2.09,2.09"/><path class="cls-1" d="M116.61,77.11A2.08,2.08,0,1,0,114.53,75a2.09,2.09,0,0,0,2.08,2.08"/><path class="cls-1" d="M121.82,77.14A2.11,2.11,0,1,0,119.71,75a2.11,2.11,0,0,0,2.11,2.11"/><path class="cls-1" d="M127,77.09A2.07,2.07,0,1,0,125,75,2.07,2.07,0,0,0,127,77.09"/><path class="cls-1" d="M132.24,77.14A2.11,2.11,0,1,0,130.13,75a2.1,2.1,0,0,0,2.11,2.11"/><path class="cls-1" d="M137.45,75s0,0,0,0a0,0,0,0,0,0,0,0,0,0,0,0,0,0s0,0,0,0"/><path class="cls-1" d="M184.32,77.14A2.11,2.11,0,1,0,182.21,75a2.11,2.11,0,0,0,2.11,2.11"/><path class="cls-1" d="M189.53,75.68a.65.65,0,1,0-.65-.65.65.65,0,0,0,.65.65"/><path class="cls-1" d="M194.74,77.14A2.11,2.11,0,1,0,192.63,75a2.11,2.11,0,0,0,2.11,2.11"/><path class="cls-1" d="M200,76.42A1.39,1.39,0,1,0,198.56,75,1.4,1.4,0,0,0,200,76.42"/><path class="cls-1" d="M205.16,75.36a.33.33,0,0,0,.33-.33.34.34,0,0,0-.67,0,.34.34,0,0,0,.34.33"/><path class="cls-1" d="M210.37,75.33a.31.31,0,0,0,.3-.3.3.3,0,0,0-.3-.3.29.29,0,0,0-.3.3.3.3,0,0,0,.3.3"/><path class="cls-1" d="M43.69,82.34a2.11,2.11,0,1,0-2.1-2.1,2.1,2.1,0,0,0,2.1,2.1"/><path class="cls-1" d="M48.91,82.34a2.11,2.11,0,1,0-2.12-2.1,2.11,2.11,0,0,0,2.12,2.1"/><path class="cls-1" d="M54.11,82.34A2.11,2.11,0,1,0,52,80.24a2.1,2.1,0,0,0,2.11,2.1"/><path class="cls-1" d="M59.32,82.34a2.11,2.11,0,1,0-2.12-2.1,2.11,2.11,0,0,0,2.12,2.1"/><path class="cls-1" d="M64.53,82.34a2.11,2.11,0,1,0-2.11-2.1,2.11,2.11,0,0,0,2.11,2.1"/><path class="cls-1" d="M69.73,82.34a2.11,2.11,0,1,0-2.1-2.1,2.11,2.11,0,0,0,2.1,2.1"/><path class="cls-1" d="M74.94,82.34a2.11,2.11,0,1,0-2.11-2.1,2.1,2.1,0,0,0,2.11,2.1"/><path class="cls-1" d="M116.61,82.33a2.1,2.1,0,1,0-2.09-2.09,2.09,2.09,0,0,0,2.09,2.09"/><path class="cls-1" d="M121.82,82.34a2.11,2.11,0,1,0-2.11-2.1,2.1,2.1,0,0,0,2.11,2.1"/><path class="cls-1" d="M127,82.07a1.84,1.84,0,1,0-1.83-1.84A1.84,1.84,0,0,0,127,82.07"/><path class="cls-1" d="M132.24,82.34a2.11,2.11,0,1,0-2.11-2.1,2.09,2.09,0,0,0,2.11,2.1"/><path class="cls-1" d="M215.58,82.33a2.1,2.1,0,1,0-2.1-2.09,2.08,2.08,0,0,0,2.1,2.09"/><path class="cls-1" d="M220.78,80.52a.29.29,0,0,0,.3-.29.29.29,0,0,0-.3-.28.29.29,0,0,0-.28.28.28.28,0,0,0,.28.29"/><path class="cls-1" d="M226,81a.78.78,0,1,0-.78-.79A.78.78,0,0,0,226,81"/><path class="cls-1" d="M43.69,87.44a2,2,0,1,0-2-2,2,2,0,0,0,2,2"/><path class="cls-1" d="M48.91,87.55a2.11,2.11,0,1,0-2.12-2.1,2.11,2.11,0,0,0,2.12,2.1"/><path class="cls-1" d="M54.11,87.54A2.1,2.1,0,1,0,52,85.45a2.09,2.09,0,0,0,2.1,2.09"/><path class="cls-1" d="M59.32,87.55a2.11,2.11,0,1,0-2.12-2.1,2.11,2.11,0,0,0,2.12,2.1"/><path class="cls-1" d="M64.53,87.55a2.11,2.11,0,1,0-2.11-2.1,2.11,2.11,0,0,0,2.11,2.1"/><path class="cls-1" d="M69.73,87.55a2.11,2.11,0,1,0-2.1-2.1,2.11,2.11,0,0,0,2.1,2.1"/><path class="cls-1" d="M116.61,87.55a2.11,2.11,0,1,0-2.11-2.1,2.11,2.11,0,0,0,2.11,2.1"/><path class="cls-1" d="M121.82,87.54a2.1,2.1,0,1,0-2.09-2.09,2.09,2.09,0,0,0,2.09,2.09"/><path class="cls-1" d="M127,87.53A2.08,2.08,0,1,0,125,85.44,2.08,2.08,0,0,0,127,87.53"/><path class="cls-1" d="M132.24,87.55a2.11,2.11,0,1,0-2.11-2.1,2.09,2.09,0,0,0,2.11,2.1"/><path class="cls-1" d="M137.45,85.47a0,0,0,0,0,0,0s0,0,0,0,0,0,0,0a0,0,0,0,0,0,0"/><path class="cls-1" d="M142.66,85.49a0,0,0,0,0,0,0,0,0,0,0,0,0,0,0,0,0,0,0,0,0,0,0,0,0,0,0,0"/><path class="cls-1" d="M179.12,85.46h0a0,0,0,0,0,0,0,0,0,0,0,0,0,0h0"/><path class="cls-1" d="M200,85.49a0,0,0,0,0,0,0s0,0,0,0,0,0,0,0a0,0,0,0,0,0,0"/><path class="cls-1" d="M210.37,87.05a1.61,1.61,0,1,0-1.61-1.6,1.6,1.6,0,0,0,1.61,1.6"/><path class="cls-1" d="M215.58,87.38a1.94,1.94,0,1,0-1.94-1.93,1.94,1.94,0,0,0,1.94,1.93"/><path class="cls-1" d="M48.91,92.26a1.61,1.61,0,1,0-1.61-1.61,1.6,1.6,0,0,0,1.61,1.61"/><path class="cls-1" d="M54.11,92.76A2.11,2.11,0,1,0,52,90.65a2.1,2.1,0,0,0,2.11,2.11"/><path class="cls-1" d="M59.32,92.75a2.1,2.1,0,1,0-2.1-2.1,2.09,2.09,0,0,0,2.1,2.1"/><path class="cls-1" d="M64.53,92.76a2.11,2.11,0,1,0-2.11-2.11,2.11,2.11,0,0,0,2.11,2.11"/><path class="cls-1" d="M69.73,92.76a2.11,2.11,0,1,0-2.1-2.11,2.11,2.11,0,0,0,2.1,2.11"/><path class="cls-1" d="M116.61,92.73a2.08,2.08,0,1,0-2.08-2.08,2.09,2.09,0,0,0,2.08,2.08"/><path class="cls-1" d="M121.82,92.72a2.07,2.07,0,1,0-2.07-2.07,2.07,2.07,0,0,0,2.07,2.07"/><path class="cls-1" d="M127,92.76a2.11,2.11,0,1,0-2.11-2.11A2.11,2.11,0,0,0,127,92.76"/><path class="cls-1" d="M132.24,92.75a2.1,2.1,0,1,0-2.1-2.1,2.1,2.1,0,0,0,2.1,2.1"/><path class="cls-1" d="M137.45,90.73a.08.08,0,0,0,.07-.08.08.08,0,0,0-.07-.07.08.08,0,1,0,0,.15"/><path class="cls-1" d="M200,92.75a2.1,2.1,0,1,0-2.09-2.1,2.1,2.1,0,0,0,2.09,2.1"/><path class="cls-1" d="M205.16,92.76a2.11,2.11,0,1,0-2.11-2.11,2.11,2.11,0,0,0,2.11,2.11"/><path class="cls-1" d="M210.37,92.76a2.11,2.11,0,1,0-2.11-2.11,2.11,2.11,0,0,0,2.11,2.11"/><path class="cls-1" d="M215.58,92.76a2.11,2.11,0,1,0-2.11-2.11,2.11,2.11,0,0,0,2.11,2.11"/><path class="cls-1" d="M54.11,98A2.11,2.11,0,1,0,52,95.86,2.1,2.1,0,0,0,54.11,98"/><path class="cls-1" d="M59.32,98a2.11,2.11,0,1,0-2.12-2.11A2.11,2.11,0,0,0,59.32,98"/><path class="cls-1" d="M64.53,98a2.11,2.11,0,1,0-2.11-2.11A2.11,2.11,0,0,0,64.53,98"/><path class="cls-1" d="M116.61,98a2.11,2.11,0,1,0-2.11-2.11A2.11,2.11,0,0,0,116.61,98"/><path class="cls-1" d="M121.82,98a2.11,2.11,0,1,0-2.11-2.11A2.1,2.1,0,0,0,121.82,98"/><path class="cls-1" d="M127,98a2.11,2.11,0,1,0-2.11-2.11A2.11,2.11,0,0,0,127,98"/><path class="cls-1" d="M194.74,98a2.11,2.11,0,1,0-2.11-2.11A2.1,2.1,0,0,0,194.74,98"/><path class="cls-1" d="M200,98a2.11,2.11,0,1,0-2.11-2.11A2.1,2.1,0,0,0,200,98"/><path class="cls-1" d="M205.16,98a2.11,2.11,0,1,0-2.11-2.11A2.11,2.11,0,0,0,205.16,98"/><path class="cls-1" d="M210.37,98a2.11,2.11,0,1,0-2.11-2.11A2.11,2.11,0,0,0,210.37,98"/><path class="cls-1" d="M215.58,98a2.11,2.11,0,1,0-2.11-2.11A2.11,2.11,0,0,0,215.58,98"/></g></g></svg>