<svg xmlns="http://www.w3.org/2000/svg" width="33.531" height="29.339" viewBox="0 0 33.531 29.339">
  <path id="Path_866" data-name="Path 866" d="M182.445,1386.416v4.191a6.692,6.692,0,0,0-2.973,3.88,22.674,22.674,0,0,0-.992,7.391v1.3h5.381v12.574H171.287v-9.4q0-8.553,2.776-13.537A12.775,12.775,0,0,1,182.445,1386.416Zm20.957,0v4.191a6.7,6.7,0,0,0-2.973,3.88,22.677,22.677,0,0,0-.991,7.391v1.3h5.38v12.574H192.244v-9.4q0-8.553,2.776-13.537A12.775,12.775,0,0,1,203.4,1386.416Z" transform="translate(-171.287 -1386.416)" fill="#006bb3"/>
</svg>
