<svg width="60" height="66" viewBox="0 0 60 66" fill="none" xmlns="http://www.w3.org/2000/svg">
<path d="M23.5883 27.5121C23.3708 27.7468 23.2456 28.0722 23.2456 28.4039C23.2456 28.7356 23.3708 29.0611 23.5883 29.2957C23.8058 29.5315 24.1076 29.6652 24.4152 29.6652C24.7228 29.6652 25.0246 29.5315 25.2421 29.2957C25.4596 29.0611 25.5848 28.7369 25.5848 28.4039C25.5848 28.0722 25.4596 27.7468 25.2421 27.5121C25.0246 27.2775 24.7228 27.1426 24.4152 27.1426C24.1076 27.1426 23.8058 27.2777 23.5883 27.5121Z" fill="black"/>
<path fill-rule="evenodd" clip-rule="evenodd" d="M29.0938 27.1427H58.7135C59.3594 27.1427 59.883 27.7074 59.883 28.404V54.5446V55.6922V59.3956V63.8872C59.883 64.5838 59.3594 65.1485 58.7135 65.1485H19.4152H7.48538H4.44444C1.9938 65.1485 0 62.9983 0 60.3555C0 58.9591 0.556959 57.7005 1.44339 56.8238C0.556842 55.9469 0 54.6885 0 53.2921C0 51.8957 0.556959 50.6371 1.44339 49.7602C0.556842 48.8834 0 47.625 0 46.2285C0 43.5857 1.9938 41.4355 4.44444 41.4355H6.31579V36.994L5.39251 37.9897C5.16421 38.2359 4.8648 38.3591 4.5655 38.3591C4.2662 38.3591 3.9669 38.236 3.73848 37.9897L0.383743 34.372C0.164444 34.1355 0.0411696 33.8146 0.0411696 33.4801C0.0411696 33.1456 0.164444 32.8247 0.383743 32.5882L9.83228 22.3985C10.289 21.9061 11.0296 21.9059 11.4863 22.3985C11.943 22.891 11.943 23.6897 11.4863 24.1822L2.8648 33.4801L4.5655 35.3141L23.4766 14.9198C23.6959 14.6833 23.9935 14.5504 24.3036 14.5504C24.6138 14.5504 24.9113 14.6833 25.1306 14.9198L29.2739 19.3882L38.808 9.10641C39.0273 8.86991 39.3248 8.73696 39.635 8.73696C39.9451 8.73696 40.2427 8.86991 40.462 9.10641L41.4247 10.1446L42.6756 3.44117L36.4593 4.79028L37.107 5.48893C37.5637 5.9816 37.5637 6.78015 37.107 7.27269L30.1007 14.8285C29.8814 15.065 29.5839 15.198 29.2737 15.198C28.9635 15.198 28.666 15.065 28.4467 14.8285L24.3034 10.3602L18.1023 17.0476C17.6455 17.5401 16.9049 17.5401 16.4482 17.0476C15.9915 16.5549 15.9915 15.7562 16.4482 15.2637L23.4763 7.68439C23.6956 7.44789 23.9931 7.31495 24.3033 7.31495C24.6134 7.31495 24.911 7.44789 25.1303 7.68439L29.2736 12.1528L34.6258 6.38069L33.2621 4.90986C32.9574 4.58116 32.8449 4.09832 32.9696 3.6532C33.0943 3.20808 33.4359 2.8732 33.8585 2.78137L43.9385 0.593735C44.3226 0.510235 44.7194 0.639773 44.9963 0.938329C45.2731 1.23688 45.3931 1.6651 45.3158 2.07907L43.2871 12.9497C43.2021 13.4055 42.8915 13.7738 42.4788 13.9083C42.0662 14.043 41.6184 13.9215 41.3136 13.5927L39.6349 11.7822L30.1008 22.064C29.8815 22.3005 29.584 22.4334 29.2738 22.4334C28.9636 22.4334 28.6661 22.3005 28.4468 22.064L24.3035 17.5956L15.4506 27.1428H19.7371C20.383 27.1428 20.9067 27.7075 20.9067 28.4041C20.9067 29.1008 20.383 29.6655 19.7371 29.6655H13.1115L8.65497 34.4715V41.4356H10.4756V36.8573C10.4756 36.1607 10.9992 35.596 11.6451 35.596C13.026 35.596 14.1492 34.3845 14.1492 32.8955C14.1492 32.1988 14.6729 31.6341 15.3188 31.6341H50.8626C51.5085 31.6341 52.0322 32.1988 52.0322 32.8955C52.0322 34.3846 53.1556 35.596 54.5363 35.596C55.1822 35.596 55.7058 36.1607 55.7058 36.8573V50.9424C55.7058 51.639 55.1822 52.2037 54.5363 52.2037C53.1554 52.2037 52.0322 53.4151 52.0322 54.904C52.0322 55.6007 51.5085 56.1654 50.8626 56.1654H22.9703C22.8047 56.403 22.6191 56.6232 22.4164 56.8238C22.7942 57.1974 23.1113 57.6407 23.3518 58.1343H57.5439V55.6922V54.5446V29.6653H29.0938C28.4478 29.6653 27.9242 29.1006 27.9242 28.404C27.9242 27.7074 28.4478 27.1427 29.0938 27.1427ZM16.3456 34.1567C15.9144 36.0254 14.5475 37.4995 12.8148 37.9645H12.8149V41.4355H19.4153C21.866 41.4355 23.8598 43.5856 23.8598 46.2285C23.8598 47.6249 23.3028 48.8833 22.4164 49.7602C23.3029 50.6371 23.8598 51.8955 23.8598 53.2919C23.8598 53.41 23.8544 53.5266 23.8466 53.6425H49.8357C50.2669 51.7739 51.6338 50.2999 53.3666 49.8349V37.9645C51.6338 37.4995 50.2669 36.0254 49.8357 34.1567H16.3456ZM2.33917 46.2289C2.33917 44.977 3.28362 43.9585 4.44444 43.9585H19.4152C20.576 43.9585 21.5205 44.977 21.5205 46.2289C21.5205 47.4807 20.576 48.4993 19.4152 48.4993H4.44444C3.28362 48.4993 2.33917 47.4807 2.33917 46.2289ZM4.44444 51.0215C3.28362 51.0215 2.33917 52.04 2.33917 53.2919C2.33917 54.5437 3.28362 55.5623 4.44444 55.5623H19.4152C20.576 55.5623 21.5205 54.5437 21.5205 53.2919C21.5205 52.04 20.576 51.0215 19.4152 51.0215H4.44444ZM7.48537 62.6257H4.44444C3.28362 62.6257 2.33917 61.6072 2.33917 60.3553C2.33917 59.1035 3.28362 58.085 4.44444 58.085H19.4152C20.576 58.085 21.5205 59.1035 21.5205 60.3553C21.5205 61.6072 20.576 62.6257 19.4152 62.6257H7.48537ZM23.3283 62.6257H57.5439V60.6567H23.8499C23.8089 61.3653 23.6252 62.033 23.3283 62.6257Z" fill="black"/>
<path d="M44.6447 45.1613H46.3107C46.9566 45.1613 47.4802 44.5966 47.4802 43.9C47.4802 43.2034 46.9566 42.6387 46.3107 42.6387H44.6447C43.9987 42.6387 43.4751 43.2034 43.4751 43.9C43.4751 44.5966 43.9987 45.1613 44.6447 45.1613Z" fill="black"/>
<path fill-rule="evenodd" clip-rule="evenodd" d="M39.2854 43.9001C39.2854 47.6052 36.4907 50.6196 33.0554 50.6196C29.6204 50.6196 26.8256 47.6052 26.8256 43.9001C26.8256 40.195 29.6202 37.1807 33.0554 37.1807C36.4907 37.1807 39.2854 40.195 39.2854 43.9001ZM36.9462 43.8999C36.9462 41.5858 35.2008 39.7031 33.0554 39.7031C30.9102 39.7031 29.1648 41.5858 29.1648 43.8999C29.1648 46.2141 30.9102 48.0967 33.0554 48.0967C35.2008 48.0967 36.9462 46.2141 36.9462 43.8999Z" fill="black"/>
<path d="M13.9836 21.0012C14.2912 21.0012 14.593 20.8675 14.8105 20.6316C15.0281 20.397 15.1532 20.0716 15.1532 19.7398C15.1532 19.4081 15.0281 19.0827 14.8105 18.8481C14.593 18.6135 14.2912 18.4785 13.9836 18.4785C13.676 18.4785 13.3743 18.6135 13.1567 18.8481C12.938 19.084 12.814 19.4081 12.814 19.7398C12.814 20.0716 12.938 20.397 13.1567 20.6316C13.3743 20.8675 13.676 21.0012 13.9836 21.0012Z" fill="black"/>
</svg>
