<svg width="25" height="34" viewBox="0 0 25 34" fill="none" xmlns="http://www.w3.org/2000/svg">
<path fill-rule="evenodd" clip-rule="evenodd" d="M23.9128 0.930689C23.5119 0.583907 22.9829 0.432604 22.4618 0.514914L2.39917 3.68987C2.32591 3.70144 2.25735 3.72573 2.19501 3.75952C1.29389 4.01048 0.629883 4.84573 0.629883 5.8354V31.6015C0.629883 32.7888 1.58537 33.7549 2.75986 33.7549H19.6151C20.6093 33.7549 21.418 32.9372 21.418 31.9322V30.5789L23.024 30.3205C23.9044 30.1788 24.5435 29.4218 24.5435 28.5205V2.31567C24.5436 1.78231 24.3137 1.27747 23.9128 0.930689ZM20.1328 29.4702V30.7858V31.9322C20.1328 32.2208 19.9006 32.4556 19.6151 32.4556H9.7566H2.75985C2.29402 32.4556 1.91508 32.0725 1.91508 31.6016V5.83547C1.91508 5.36454 2.29402 4.98144 2.75985 4.98144H3.14111H19.6151C19.9005 4.98144 20.1328 5.21622 20.1328 5.50492V29.4702ZM22.8219 29.0375C23.0747 28.9968 23.2583 28.7794 23.2583 28.5206H23.2583V2.3157C23.2583 2.10606 23.1448 1.97652 23.0771 1.91805C23.0095 1.85952 22.8652 1.7659 22.6605 1.79864L10.7588 3.6821H19.615C20.6092 3.6821 21.418 4.49981 21.418 5.50488V29.2634L22.8219 29.0375Z" fill="black"/>
<path d="M17.7765 10.7615C17.7451 10.6784 17.7117 10.5943 17.6771 10.5117C17.5386 10.1814 17.1615 10.0271 16.8346 10.1671C16.5079 10.3071 16.3553 10.6883 16.4938 11.0187C16.5223 11.0868 16.5498 11.1558 16.5755 11.2241C17.34 13.2524 16.961 15.5473 15.5865 17.2133L11.0241 22.7435L6.46156 17.2133C4.47964 14.8109 4.63502 11.3313 6.82303 9.11931C8.50698 7.4169 11.0238 6.89491 13.2352 7.7898C13.5647 7.92311 13.9387 7.76122 14.0706 7.42808C14.2025 7.095 14.0423 6.71691 13.7128 6.58354C11.0234 5.49544 7.96237 6.13008 5.91432 8.20057C4.63579 9.49311 3.88671 11.2107 3.80516 13.0368C3.72355 14.8629 4.31648 16.6417 5.47458 18.0456L10.5305 24.174C10.6526 24.322 10.8334 24.4075 11.0241 24.4075C11.2147 24.4075 11.3954 24.322 11.5176 24.174L16.5735 18.0457C18.2452 16.0193 18.7062 13.2282 17.7765 10.7615Z" fill="black"/>
<path d="M15.0975 25.81H6.95053C6.59562 25.81 6.30792 26.1009 6.30792 26.4596C6.30792 26.8184 6.59562 27.1093 6.95053 27.1093H15.0975C15.4524 27.1093 15.7401 26.8184 15.7401 26.4596C15.7401 26.1009 15.4524 25.81 15.0975 25.81Z" fill="black"/>
<path d="M18.4267 29.4269C18.419 29.3854 18.4062 29.3444 18.3901 29.3055C18.3741 29.2658 18.3541 29.2282 18.331 29.1931C18.3079 29.1573 18.2809 29.1242 18.2513 29.0943C18.2218 29.0644 18.189 29.0372 18.1536 29.0138C18.1189 28.9905 18.0817 28.9703 18.0425 28.954C18.0039 28.9378 17.9634 28.9248 17.9223 28.917C17.8394 28.9001 17.7546 28.9001 17.671 28.917C17.6306 28.9248 17.5901 28.9378 17.5509 28.954C17.5123 28.9703 17.475 28.9905 17.4403 29.0138C17.405 29.0372 17.3722 29.0644 17.3427 29.0943C17.3131 29.1242 17.2861 29.1573 17.2623 29.1931C17.2392 29.2282 17.2193 29.2658 17.2032 29.3055C17.1872 29.3444 17.175 29.3854 17.1666 29.427C17.1582 29.4685 17.1544 29.5114 17.1544 29.5536C17.1544 29.5958 17.1582 29.6387 17.1666 29.6803C17.175 29.7219 17.1872 29.7628 17.2032 29.8025C17.2193 29.8414 17.2392 29.8791 17.2623 29.9142C17.266 29.9197 17.2703 29.9248 17.2742 29.9302C17.2951 29.9597 17.3177 29.9877 17.3427 30.0129C17.3722 30.0428 17.405 30.0701 17.4403 30.0941C17.475 30.1175 17.5123 30.137 17.5509 30.1532C17.5901 30.1694 17.6306 30.1824 17.671 30.1909C17.7128 30.1993 17.7552 30.2032 17.797 30.2032C17.8388 30.2032 17.8812 30.1993 17.9223 30.1909C17.9634 30.1825 18.0039 30.1694 18.0425 30.1532C18.0817 30.137 18.1189 30.1175 18.1536 30.0941C18.189 30.0701 18.2218 30.0428 18.2513 30.0129C18.2809 29.983 18.3079 29.9499 18.331 29.9141C18.3541 29.879 18.3741 29.8414 18.3901 29.8024C18.3974 29.7843 18.4037 29.7659 18.4095 29.7474C18.4163 29.7253 18.4222 29.7029 18.4267 29.6803C18.4351 29.6386 18.4396 29.5957 18.4396 29.5536C18.4396 29.5113 18.4351 29.4684 18.4267 29.4269Z" fill="black"/>
<path d="M15.2106 28.9041H4.25119C3.89628 28.9041 3.60858 29.195 3.60858 29.5537C3.60858 29.9125 3.89628 30.2034 4.25119 30.2034H15.2106C15.5655 30.2034 15.8532 29.9125 15.8532 29.5537C15.8532 29.195 15.5655 28.9041 15.2106 28.9041Z" fill="black"/>
<path fill-rule="evenodd" clip-rule="evenodd" d="M15.762 13.5952L15.7617 13.5843C15.7548 10.9551 13.6419 8.81736 11.0416 8.80761C11.037 8.80742 11.0324 8.80722 11.0277 8.80722L11.024 8.80716C8.41147 8.80716 6.28592 10.9559 6.28592 13.5971L6.28605 13.6033L6.28643 13.6184C6.29794 16.2497 8.41847 18.3871 11.024 18.3871C13.6365 18.3871 15.762 16.2383 15.762 13.5971L15.762 13.5952ZM7.59997 13.1548C7.77379 11.7721 8.75023 10.6397 10.0414 10.2513C9.69705 11.3403 9.52573 12.4736 9.52753 13.6065C8.87445 13.5253 8.22908 13.3737 7.59997 13.1548ZM9.60839 14.923C8.96572 14.8577 8.32858 14.7337 7.70351 14.5513C8.02668 15.6989 8.91675 16.6068 10.0473 16.9446C9.83709 16.2838 9.69103 15.6066 9.60839 14.923ZM11.4505 17.0602C11.1924 16.3839 11.0128 15.684 10.9114 14.9746C11.5918 14.9596 12.2735 14.8798 12.9482 14.7332L14.3784 14.4226C14.0434 15.8141 12.8815 16.8811 11.4505 17.0602ZM10.8132 13.6757C11.4361 13.6668 12.0603 13.597 12.6783 13.4628L14.4388 13.0804C14.2114 11.5382 12.9824 10.3229 11.4443 10.1332C11.0128 11.2699 10.8025 12.4735 10.8132 13.6757Z" fill="black"/>
<path d="M16.3093 8.53279C16.301 8.49186 16.2888 8.45094 16.2727 8.41131C16.2567 8.37233 16.2367 8.33465 16.2136 8.29957C16.1905 8.26384 16.1635 8.23064 16.1339 8.20076C16.1044 8.17087 16.0709 8.14359 16.0362 8.11955C16.0009 8.09623 15.9636 8.07602 15.9251 8.05978C15.8865 8.04354 15.846 8.03126 15.8049 8.02282C15.722 8.00586 15.6365 8.00586 15.5536 8.02282C15.5125 8.03126 15.472 8.04354 15.4335 8.05978C15.3949 8.07602 15.3576 8.09623 15.3223 8.11955C15.2876 8.14359 15.2548 8.17087 15.2246 8.20076C15.1951 8.23064 15.1687 8.26384 15.1449 8.29957C15.1218 8.33465 15.1019 8.37233 15.0858 8.41131C15.0698 8.45094 15.0576 8.49186 15.0492 8.53279C15.0408 8.57502 15.037 8.61725 15.037 8.66012C15.037 8.70235 15.0408 8.74529 15.0492 8.7868C15.0576 8.82832 15.0698 8.86931 15.0858 8.90829C15.1019 8.94785 15.1218 8.98553 15.1449 9.02061C15.1687 9.05634 15.1951 9.08954 15.2246 9.11942C15.2548 9.14931 15.2876 9.17659 15.3223 9.19998C15.3576 9.2233 15.3949 9.24351 15.4335 9.25975C15.472 9.27599 15.5125 9.28827 15.5536 9.29671C15.5954 9.30516 15.6378 9.30971 15.6796 9.30971C15.7214 9.30971 15.7638 9.30516 15.8049 9.29671C15.846 9.28827 15.8865 9.27599 15.9251 9.25975C15.9636 9.24351 16.0009 9.2233 16.0362 9.19998C16.0709 9.17659 16.1044 9.14931 16.1339 9.11942C16.1635 9.08954 16.1905 9.05634 16.2136 9.02061C16.2367 8.98553 16.2567 8.94785 16.2727 8.90829C16.2888 8.86924 16.301 8.82838 16.3093 8.7868C16.3177 8.74523 16.3222 8.70235 16.3222 8.66012C16.3222 8.61725 16.3177 8.57502 16.3093 8.53279Z" fill="black"/>
</svg>
