<svg width="55" height="55" viewBox="0 0 55 55" fill="none" xmlns="http://www.w3.org/2000/svg">
<path d="M30.0575 8.98581C30.0139 8.98576 29.9704 8.98203 29.9275 8.97466C29.2377 8.85202 28.5235 8.75763 27.8055 8.69297C27.6088 8.67543 27.4271 8.58045 27.3004 8.42894C27.1737 8.27743 27.1124 8.08179 27.1299 7.88507C27.1474 7.68834 27.2424 7.50664 27.3939 7.37994C27.5454 7.25324 27.7411 7.19191 27.9378 7.20946C28.6989 7.27784 29.4555 7.37817 30.1861 7.50676C30.3693 7.53885 30.5338 7.63848 30.6472 7.78597C30.7605 7.93345 30.8144 8.11808 30.7983 8.30338C30.7821 8.48869 30.6971 8.6612 30.56 8.78685C30.4228 8.91251 30.2435 8.98218 30.0575 8.98209V8.98581Z" fill="white"/>
<path d="M10.5094 47.0993C10.3123 47.0993 10.1233 47.021 9.98387 46.8816C9.84449 46.7423 9.76618 46.5532 9.76618 46.3561V37.1213C4.49807 33.8852 1.48645 29.1604 1.48645 24.1034C1.48645 17.4796 6.80807 11.4028 15.0432 8.62162C15.1364 8.58718 15.2356 8.57177 15.3348 8.57632C15.4341 8.58086 15.5314 8.60526 15.6211 8.64807C15.7108 8.69089 15.7909 8.75125 15.8569 8.82558C15.9228 8.89991 15.9732 8.98672 16.005 9.08085C16.0368 9.17498 16.0494 9.27454 16.0421 9.37363C16.0347 9.47273 16.0076 9.56934 15.9623 9.65777C15.917 9.7462 15.8544 9.82464 15.7782 9.88846C15.7021 9.95228 15.6139 10.0002 15.5189 10.0293C7.89767 12.6039 2.97294 18.1277 2.97294 24.1034C2.97294 28.7375 5.85746 33.0966 10.887 36.0614C10.9983 36.1271 11.0906 36.2206 11.1547 36.3329C11.2189 36.4451 11.2526 36.5721 11.2527 36.7014V45.2056C13.0796 44.3337 16.9162 42.2816 19.1377 39.5071C19.2204 39.4037 19.3291 39.3243 19.4527 39.277C19.5763 39.2297 19.7103 39.2162 19.8408 39.238C21.4951 39.5141 23.1694 39.6526 24.8466 39.652C25.5579 39.652 26.3026 39.6253 27.0615 39.5725C38.2644 38.7705 46.7128 32.12 46.7128 24.1034C46.7155 23.9707 46.7116 23.838 46.7009 23.7057C46.4861 18.0571 42.0036 12.951 34.9993 10.3363C34.8146 10.2673 34.6649 10.1278 34.583 9.94837C34.5012 9.76898 34.494 9.56443 34.563 9.37973C34.632 9.19503 34.7715 9.0453 34.9509 8.96348C35.1303 8.88166 35.3349 8.87445 35.5196 8.94345C43.0962 11.7715 47.9488 17.3919 48.1844 23.6069C48.1985 23.7437 48.1993 23.9235 48.1993 24.1034C48.1993 32.9093 39.157 40.1968 27.1655 41.0553C26.371 41.1103 25.5913 41.1385 24.8458 41.1385C23.2285 41.1392 21.6135 41.0167 20.0148 40.7721C16.7423 44.5946 11.0379 46.944 10.7896 47.0473C10.7005 47.0828 10.6053 47.1005 10.5094 47.0993Z" fill="white"/>
<path d="M20.4831 8.85202C20.2949 8.85239 20.1137 8.78139 19.9758 8.65334C19.838 8.52529 19.7538 8.34972 19.7403 8.16205C19.7268 7.97439 19.785 7.78859 19.9031 7.64215C20.0213 7.49571 20.1905 7.39951 20.3768 7.37297C21.0836 7.2704 21.8165 7.19311 22.6169 7.13736C22.7145 7.13053 22.8125 7.14299 22.9053 7.17403C22.9981 7.20507 23.0839 7.25408 23.1577 7.31826C23.2316 7.38245 23.2921 7.46055 23.3357 7.54811C23.3794 7.63567 23.4054 7.73097 23.4122 7.82858C23.419 7.92618 23.4066 8.02418 23.3755 8.11697C23.3445 8.20976 23.2955 8.29552 23.2313 8.36937C23.1671 8.44322 23.089 8.5037 23.0015 8.54736C22.9139 8.59103 22.8186 8.61702 22.721 8.62385C21.9569 8.67662 21.2605 8.7502 20.5916 8.84682C20.5556 8.85111 20.5193 8.85285 20.4831 8.85202Z" fill="white"/>
<path d="M47.1372 47.9392C47.0413 47.939 46.9464 47.9204 46.8577 47.8842C46.6883 47.8158 42.8487 46.2379 40.5647 43.6477C39.5064 43.8024 38.4382 43.8796 37.3687 43.8789C33.6102 43.9261 29.9152 42.9071 26.7121 40.9401C26.5462 40.8335 26.4295 40.6654 26.3875 40.4728C26.3456 40.2802 26.3818 40.0788 26.4884 39.9129C26.5949 39.747 26.763 39.6303 26.9556 39.5883C27.1483 39.5464 27.3497 39.5826 27.5156 39.6892C30.4784 41.5028 33.8945 42.4398 37.368 42.3916C38.4973 42.393 39.6247 42.3003 40.7386 42.1144C40.8693 42.0922 41.0035 42.1054 41.1274 42.1526C41.2513 42.1998 41.3603 42.2792 41.4432 42.3827C42.8334 43.9183 44.5166 45.1603 46.3939 46.0357V40.6242C46.394 40.4952 46.4275 40.3684 46.4914 40.2564C46.5553 40.1443 46.6472 40.0508 46.7581 39.985C50.1064 37.9983 52.027 35.0989 52.027 32.0338C52.027 29.0749 50.212 26.2447 47.0472 24.2684C46.9643 24.2167 46.8923 24.1492 46.8354 24.0697C46.7786 23.9902 46.7379 23.9003 46.7158 23.8051C46.6937 23.7099 46.6905 23.6112 46.7065 23.5148C46.7225 23.4184 46.7573 23.326 46.809 23.2431C46.9134 23.0755 47.0801 22.9563 47.2723 22.9116C47.3676 22.8895 47.4662 22.8864 47.5626 22.9023C47.659 22.9183 47.7514 22.9532 47.8343 23.0049C51.4435 25.2584 53.5135 28.5487 53.5135 32.0338C53.5135 35.5189 51.4666 38.7876 47.8804 41.0441V47.1959C47.8804 47.3931 47.8021 47.5821 47.6627 47.7215C47.5233 47.8609 47.3343 47.9392 47.1372 47.9392Z" fill="white"/>
<path d="M35.3724 27.6174C34.6768 27.6174 33.9968 27.4112 33.4184 27.0247C32.84 26.6382 32.3893 26.089 32.1231 25.4463C31.8569 24.8037 31.7872 24.0965 31.9229 23.4143C32.0586 22.732 32.3936 22.1054 32.8855 21.6135C33.3773 21.1216 34.004 20.7867 34.6862 20.651C35.3685 20.5152 36.0756 20.5849 36.7183 20.8511C37.3609 21.1173 37.9102 21.5681 38.2967 22.1464C38.6831 22.7248 38.8894 23.4048 38.8894 24.1004C38.8884 25.0329 38.5176 25.9269 37.8582 26.5862C37.1988 27.2456 36.3048 27.6164 35.3724 27.6174ZM35.3724 22.0699C34.9708 22.0699 34.5782 22.189 34.2443 22.4121C33.9103 22.6352 33.6501 22.9523 33.4964 23.3233C33.3427 23.6944 33.3025 24.1027 33.3808 24.4965C33.4592 24.8904 33.6526 25.2522 33.9366 25.5362C34.2205 25.8202 34.5823 26.0136 34.9762 26.0919C35.3701 26.1703 35.7784 26.1301 36.1494 25.9764C36.5205 25.8227 36.8376 25.5624 37.0607 25.2285C37.2838 24.8946 37.4029 24.502 37.4029 24.1004C37.4021 23.5621 37.1879 23.0461 36.8073 22.6655C36.4267 22.2848 35.9107 22.0706 35.3724 22.0699Z" fill="white"/>
<path d="M24.8436 27.6174C24.148 27.6174 23.468 27.4112 22.8896 27.0247C22.3112 26.6382 21.8605 26.089 21.5943 25.4463C21.3281 24.8037 21.2584 24.0965 21.3941 23.4143C21.5298 22.732 21.8648 22.1054 22.3567 21.6135C22.8485 21.1216 23.4752 20.7867 24.1574 20.651C24.8397 20.5152 25.5468 20.5849 26.1895 20.8511C26.8321 21.1173 27.3814 21.5681 27.7679 22.1464C28.1543 22.7248 28.3606 23.4048 28.3606 24.1004C28.3596 25.0329 27.9887 25.9269 27.3294 26.5862C26.67 27.2456 25.776 27.6164 24.8436 27.6174ZM24.8436 22.0699C24.442 22.0699 24.0494 22.189 23.7155 22.4121C23.3815 22.6352 23.1213 22.9523 22.9676 23.3233C22.8139 23.6944 22.7737 24.1027 22.852 24.4965C22.9304 24.8904 23.1238 25.2522 23.4078 25.5362C23.6917 25.8202 24.0535 26.0136 24.4474 26.0919C24.8413 26.1703 25.2496 26.1301 25.6206 25.9764C25.9917 25.8227 26.3088 25.5624 26.5319 25.2285C26.755 24.8946 26.8741 24.502 26.8741 24.1004C26.8733 23.5621 26.6591 23.0461 26.2785 22.6655C25.8979 22.2848 25.3819 22.0706 24.8436 22.0699Z" fill="white"/>
<path d="M14.3149 27.6174C13.6193 27.6173 12.9394 27.4109 12.3611 27.0243C11.7828 26.6378 11.3322 26.0885 11.0661 25.4458C10.8 24.8031 10.7305 24.096 10.8663 23.4138C11.002 22.7316 11.3371 22.105 11.829 21.6132C12.3209 21.1214 12.9475 20.7865 13.6297 20.6509C14.312 20.5153 15.0191 20.5849 15.6617 20.8512C16.3043 21.1174 16.8535 21.5682 17.24 22.1465C17.6264 22.7249 17.8326 23.4048 17.8326 24.1004C17.8317 25.033 17.4607 25.9271 16.8012 26.5865C16.1417 27.2459 15.2475 27.6166 14.3149 27.6174ZM14.3149 22.0699C13.9133 22.07 13.5208 22.1892 13.187 22.4124C12.8531 22.6356 12.593 22.9528 12.4394 23.3239C12.2859 23.6949 12.2457 24.1032 12.3242 24.497C12.4026 24.8908 12.5961 25.2526 12.8801 25.5365C13.1641 25.8204 13.5259 26.0137 13.9197 26.092C14.3136 26.1703 14.7219 26.13 15.0928 25.9763C15.4638 25.8226 15.7809 25.5623 16.004 25.2284C16.2271 24.8945 16.3462 24.502 16.3462 24.1004C16.3454 23.562 16.1311 23.0459 15.7503 22.6652C15.3695 22.2845 14.8533 22.0705 14.3149 22.0699Z" fill="white"/>
</svg>
