<svg xmlns="http://www.w3.org/2000/svg" viewBox="0 0 64.46 79.98"><defs><style>.cls-1{fill:#cedbdd;}.cls-2{fill:#19a6df;}.cls-3{fill:#fff;}.cls-4{fill:#e2f2ef;}.cls-5{fill:#f2b92a;}.cls-6{fill:#afc536;}</style></defs><title>Asset 3</title><g id="Layer_2" data-name="Layer 2"><g id="Layer_1-2" data-name="Layer 1"><path class="cls-1" d="M61.57,49.7A29.29,29.29,0,0,1,49.88,73.14c-4.91,3.7-30.39,3.7-35.3,0a29.34,29.34,0,1,1,47-23.44"/><path class="cls-2" d="M32.23,76.88c-7.79,0-15.58-1-18.22-3A30.28,30.28,0,1,1,62.51,49.7,30.07,30.07,0,0,1,50.45,73.89c-2.64,2-10.43,3-18.22,3m0-55.57A28.39,28.39,0,0,0,15.15,72.38c4.63,3.5,29.53,3.5,34.16,0A28.39,28.39,0,0,0,32.23,21.31"/><path class="cls-3" d="M51.52,47.58h5.17a6.82,6.82,0,0,0,6.82-6.82V37.32a6.82,6.82,0,0,0-6.82-6.82H51.52Z"/><path class="cls-2" d="M56,48.53h-5.4v-19H56A8.5,8.5,0,0,1,64.46,38v2A8.5,8.5,0,0,1,56,48.53m-3.51-1.89H56a6.61,6.61,0,0,0,6.6-6.6V38a6.61,6.61,0,0,0-6.6-6.6H52.46Z"/><path class="cls-3" d="M12.94,47.58H7.77A6.82,6.82,0,0,1,1,40.76V37.32A6.82,6.82,0,0,1,7.77,30.5h5.17Z"/><path class="cls-2" d="M13.89,48.53H8.49A8.5,8.5,0,0,1,0,40V38a8.5,8.5,0,0,1,8.49-8.49h5.4ZM8.49,31.44A6.61,6.61,0,0,0,1.89,38v2a6.61,6.61,0,0,0,6.6,6.6H12V31.44Z"/><path class="cls-3" d="M39.94,57.48H24.52A17.08,17.08,0,0,1,7.45,40.4V31.81A17.08,17.08,0,0,1,24.52,14.73H39.94A17.08,17.08,0,0,1,57,31.81V40.4A17.08,17.08,0,0,1,39.94,57.48"/><path class="cls-2" d="M39.33,58.42H25.13A18.65,18.65,0,0,1,6.5,39.79V32.41A18.65,18.65,0,0,1,25.13,13.78h14.2A18.65,18.65,0,0,1,58,32.41v7.38A18.65,18.65,0,0,1,39.33,58.42M25.13,15.68A16.75,16.75,0,0,0,8.39,32.41v7.38A16.76,16.76,0,0,0,25.13,56.53h14.2A16.76,16.76,0,0,0,56.07,39.79V32.41A16.75,16.75,0,0,0,39.33,15.68Z"/><path class="cls-4" d="M13.3,39.57V34.05a11,11,0,0,1,11-11h15.9a11,11,0,0,1,11,11v5.52a11,11,0,0,1-11,11H24.28a11,11,0,0,1-11-11"/><path class="cls-2" d="M39.78,51.5H24.68A12.34,12.34,0,0,1,12.36,39.17V34.45A12.34,12.34,0,0,1,24.68,22.12h15.1A12.34,12.34,0,0,1,52.1,34.45v4.72A12.34,12.34,0,0,1,39.78,51.5M24.68,24A10.44,10.44,0,0,0,14.25,34.45v4.72A10.45,10.45,0,0,0,24.68,49.61h15.1A10.45,10.45,0,0,0,50.21,39.17V34.45A10.44,10.44,0,0,0,39.78,24Z"/><line class="cls-3" x1="32.23" y1="15.59" x2="32.23" y2="7.12"/><rect class="cls-2" x="31.28" y="7.12" width="1.89" height="8.47"/><path class="cls-5" d="M36.59,5.31A4.36,4.36,0,1,1,32.23,1a4.36,4.36,0,0,1,4.36,4.36"/><path class="cls-2" d="M32.23,10.61a5.31,5.31,0,1,1,5.31-5.3,5.31,5.31,0,0,1-5.31,5.3m0-8.72a3.42,3.42,0,1,0,3.42,3.42,3.42,3.42,0,0,0-3.42-3.42"/><path class="cls-2" d="M23.23,30.9a2.94,2.94,0,1,0,2.94,2.94,2.94,2.94,0,0,0-2.94-2.94"/><path class="cls-2" d="M27,40.27a5.28,5.28,0,1,0,10.56,0Z"/><path class="cls-2" d="M32.23,45.6A6.24,6.24,0,0,1,26,39.37a.94.94,0,0,1,.94-.94H37.51a.94.94,0,0,1,.94.94,6.24,6.24,0,0,1-6.22,6.23M28,40.32a4.33,4.33,0,0,0,8.46,0Z"/><path class="cls-2" d="M41.22,30.9a2.94,2.94,0,1,0,2.94,2.94,2.94,2.94,0,0,0-2.94-2.94"/><path class="cls-2" d="M32.23,45.39a5.57,5.57,0,0,1-5.08-3,.94.94,0,1,1,1.7-.82,3.94,3.94,0,0,0,6.76,0,.94.94,0,1,1,1.7.82,5.57,5.57,0,0,1-5.08,3"/><path class="cls-3" d="M38.91,61.58H25.55a11,11,0,0,0-11,11v.59a29.35,29.35,0,0,0,35.3,0v-.59a11,11,0,0,0-11-11"/><path class="cls-2" d="M32.23,80A30,30,0,0,1,14,73.89l-.37-.28V72.55A11.92,11.92,0,0,1,25.55,60.64H38.91A11.92,11.92,0,0,1,50.82,72.55v1.06l-.37.28A30,30,0,0,1,32.23,80m-16.7-7.32a28.4,28.4,0,0,0,33.4,0v-.11a10,10,0,0,0-10-10H25.55a10,10,0,0,0-10,10Z"/><path class="cls-5" d="M32.23,44.65a5.23,5.23,0,0,0,4.16-2,5,5,0,0,0-8.32,0,5.23,5.23,0,0,0,4.16,2"/><path class="cls-5" d="M32.23,45.36A5.94,5.94,0,0,1,27.51,43a.71.71,0,0,1,0-.82,5.67,5.67,0,0,1,9.52,0A.71.71,0,0,1,37,43a6,6,0,0,1-4.72,2.32M29,42.57a4.56,4.56,0,0,0,6.52,0,4.26,4.26,0,0,0-6.52,0"/><path class="cls-6" d="M52.48,12.64a1,1,0,0,1-.95-1V9.8a1,1,0,0,1,1.9,0v1.89a1,1,0,0,1-1,1"/><path class="cls-6" d="M60.75,18.55H58.86a1,1,0,0,1,0-1.9h1.89a1,1,0,0,1,0,1.9"/><path class="cls-6" d="M57.09,14.17a1,1,0,0,1-.67-.27,1,1,0,0,1,0-1.34l1.47-1.47a.94.94,0,0,1,1.33,0,1,1,0,0,1,0,1.34L57.76,13.9a1,1,0,0,1-.67.27"/></g></g></svg>