<svg xmlns="http://www.w3.org/2000/svg" width="264" height="19.19" viewBox="0 0 264 19.19">
  <g id="Robot" transform="translate(-79.5 -199.821)">
    <line id="Line_5" data-name="Line 5" x2="264" transform="translate(79.5 211.5)" fill="none" stroke="#00658b" stroke-width="1"/>
    <rect id="Rectangle_5" data-name="Rectangle 5" width="34" height="10" transform="translate(190 206)" fill="#fff"/>
    <g id="Layer_2" data-name="Layer 2" transform="translate(199 199.831)">
      <g id="Layer_1" data-name="Layer 1" transform="translate(0 -0.01)">
        <path id="Path_23" data-name="Path 23" d="M16.97,27.4a7.025,7.025,0,0,1-2.8,5.622c-1.178.887-7.289.887-8.466,0A7.037,7.037,0,1,1,16.972,27.4" transform="translate(-2.203 -15.48)" fill="#cedbdd"/>
        <path id="Path_24" data-name="Path 24" d="M9.211,33.2c-1.868,0-3.737-.24-4.37-.72a7.261,7.261,0,1,1,8.74,0c-.633.48-2.5.72-4.37.72m0-13.328a6.809,6.809,0,0,0-4.1,12.246c1.11.839,7.082.839,8.193,0a6.809,6.809,0,0,0-4.1-12.249" transform="translate(-1.481 -14.754)" fill="#19a6df"/>
        <path id="Path_25" data-name="Path 25" d="M51.52,34.6h1.24A1.636,1.636,0,0,0,54.4,32.961v-.825A1.636,1.636,0,0,0,52.76,30.5H51.52Z" transform="translate(-39.163 -23.182)" fill="#fff"/>
        <path id="Path_26" data-name="Path 26" d="M51.9,34.087H50.6V29.53h1.3a2.039,2.039,0,0,1,2.029,2.031v.48A2.039,2.039,0,0,1,51.9,34.087m-.842-.453H51.9a1.585,1.585,0,0,0,1.583-1.583v-.489A1.585,1.585,0,0,0,51.9,29.979h-.849Z" transform="translate(-38.464 -22.445)" fill="#19a6df"/>
        <path id="Path_27" data-name="Path 27" d="M3.864,34.6H2.624A1.636,1.636,0,0,1,1,32.961v-.825A1.636,1.636,0,0,1,2.624,30.5h1.24Z" transform="translate(-0.76 -23.182)" fill="#fff"/>
        <path id="Path_28" data-name="Path 28" d="M3.331,34.072h-1.3A2.039,2.039,0,0,1,0,32.026v-.48A2.039,2.039,0,0,1,2.036,29.51h1.3Zm-1.3-4.1A1.585,1.585,0,0,0,.453,31.546v.48a1.585,1.585,0,0,0,1.583,1.583h.842V29.973Z" transform="translate(0 -22.43)" fill="#19a6df"/>
        <path id="Path_29" data-name="Path 29" d="M15.242,24.983h-3.7a4.1,4.1,0,0,1-4.094-4.1v-2.06a4.1,4.1,0,0,1,4.094-4.1h3.7a4.1,4.1,0,0,1,4.092,4.1v2.06a4.1,4.1,0,0,1-4.092,4.1" transform="translate(-5.663 -11.195)" fill="#fff"/>
        <path id="Path_30" data-name="Path 30" d="M14.374,24.486H10.968A4.473,4.473,0,0,1,6.5,20.018v-1.77a4.473,4.473,0,0,1,4.468-4.468h3.406a4.473,4.473,0,0,1,4.478,4.468v1.77a4.473,4.473,0,0,1-4.478,4.468M10.968,14.236a4.017,4.017,0,0,0-4.015,4.013v1.77a4.02,4.02,0,0,0,4.015,4.015h3.406a4.02,4.02,0,0,0,4.015-4.015v-1.77a4.017,4.017,0,0,0-4.015-4.013Z" transform="translate(-4.941 -10.473)" fill="#19a6df"/>
        <path id="Path_31" data-name="Path 31" d="M13.285,27.012V25.688a2.638,2.638,0,0,1,2.638-2.638h3.813a2.638,2.638,0,0,1,2.638,2.638v1.324a2.638,2.638,0,0,1-2.638,2.638H15.918a2.638,2.638,0,0,1-2.638-2.638" transform="translate(-10.095 -17.519)" fill="#e2f2ef"/>
        <path id="Path_32" data-name="Path 32" d="M18.936,29.166H15.315a2.96,2.96,0,0,1-2.955-2.957V25.077a2.96,2.96,0,0,1,2.955-2.957h3.622a2.96,2.96,0,0,1,2.955,2.957v1.132a2.96,2.96,0,0,1-2.955,2.957m-3.622-6.6a2.5,2.5,0,0,0-2.5,2.506v1.132a2.506,2.506,0,0,0,2.5,2.5h3.622a2.506,2.506,0,0,0,2.5-2.5V25.077a2.5,2.5,0,0,0-2.5-2.506Z" transform="translate(-9.396 -16.812)" fill="#19a6df"/>
        <line id="Line_6" data-name="Line 6" y1="2.031" transform="translate(7.73 1.71)" fill="#fff"/>
        <rect id="Rectangle_6" data-name="Rectangle 6" width="0.453" height="2.031" transform="translate(7.502 1.71)" fill="#19a6df"/>
        <path id="Path_33" data-name="Path 33" d="M29.962,2.034a1.04,1.04,0,1,0,0,.012" transform="translate(-21.186 -0.758)" fill="#f2b92a"/>
        <path id="Path_34" data-name="Path 34" d="M28.194,2.537a1.274,1.274,0,1,1,1.274-1.271,1.274,1.274,0,0,1-1.274,1.271m0-2.091a.82.82,0,1,0,.82.82.82.82,0,0,0-.82-.82" transform="translate(-20.464 0.01)" fill="#19a6df"/>
        <path id="Path_35" data-name="Path 35" d="M21,30.9a.705.705,0,1,0,.705.705A.705.705,0,0,0,21,30.9" transform="translate(-15.424 -23.487)" fill="#19a6df"/>
        <path id="Path_36" data-name="Path 36" d="M27,40.27a1.266,1.266,0,0,0,2.533,0Z" transform="translate(-20.524 -30.609)" fill="#19a6df"/>
        <path id="Path_37" data-name="Path 37" d="M27.494,40.15A1.5,1.5,0,0,1,26,38.655a.225.225,0,0,1,.225-.225h2.535a.225.225,0,0,1,.225.225,1.5,1.5,0,0,1-1.492,1.494M26.48,38.883a1.039,1.039,0,0,0,2.029,0Z" transform="translate(-19.764 -29.211)" fill="#19a6df"/>
        <path id="Path_38" data-name="Path 38" d="M38.985,30.9a.705.705,0,1,0,.705.705.705.705,0,0,0-.705-.705" transform="translate(-29.099 -23.487)" fill="#19a6df"/>
        <path id="Path_39" data-name="Path 39" d="M28.3,42.08a1.336,1.336,0,0,1-1.218-.72.226.226,0,0,1,.408-.2.945.945,0,0,0,1.621,0,.226.226,0,0,1,.408.2,1.336,1.336,0,0,1-1.218.72" transform="translate(-20.567 -31.192)" fill="#19a6df"/>
        <path id="Path_40" data-name="Path 40" d="M20.392,61.58h-3.2a2.638,2.638,0,0,0-2.638,2.638v.142a7.039,7.039,0,0,0,8.466,0v-.142a2.638,2.638,0,0,0-2.638-2.638" transform="translate(-11.06 -46.808)" fill="#fff"/>
        <path id="Path_41" data-name="Path 41" d="M18.091,65.283a7.2,7.2,0,0,1-4.372-1.465l-.089-.067V63.5a2.859,2.859,0,0,1,2.859-2.856h3.2A2.859,2.859,0,0,1,22.55,63.5v.254l-.089.067a7.2,7.2,0,0,1-4.37,1.465m-4.005-1.756a6.811,6.811,0,0,0,8.011,0V63.5a2.4,2.4,0,0,0-2.4-2.4H16.489a2.4,2.4,0,0,0-2.4,2.4Z" transform="translate(-10.361 -46.094)" fill="#19a6df"/>
        <path id="Path_42" data-name="Path 42" d="M29.068,41.437a1.254,1.254,0,0,0,1-.48,1.2,1.2,0,0,0-2,0,1.254,1.254,0,0,0,1,.48" transform="translate(-21.338 -30.726)" fill="#f2b92a"/>
        <path id="Path_43" data-name="Path 43" d="M28.543,40.974a1.425,1.425,0,0,1-1.132-.566.17.17,0,0,1,0-.2,1.36,1.36,0,0,1,2.283,0,.17.17,0,0,1-.007.2,1.439,1.439,0,0,1-1.132.556m-.787-.66a1.094,1.094,0,0,0,1.564,0,1.022,1.022,0,0,0-1.564,0" transform="translate(-20.813 -30.093)" fill="#f2b92a"/>
        <path id="Path_44" data-name="Path 44" d="M51.758,9.958a.24.24,0,0,1-.228-.24V9.277a.24.24,0,0,1,.456,0V9.73a.24.24,0,0,1-.24.24" transform="translate(-39.171 -6.924)" fill="#afc536"/>
        <path id="Path_45" data-name="Path 45" d="M58.79,17.106h-.453a.24.24,0,0,1,0-.456h.453a.24.24,0,0,1,0,.456" transform="translate(-44.22 -12.654)" fill="#afc536"/>
        <path id="Path_46" data-name="Path 46" d="M56.385,11.619a.225.225,0,0,1-.161-.386l.353-.353a.225.225,0,0,1,.319,0,.24.24,0,0,1,0,.321l-.35.353a.24.24,0,0,1-.161.065" transform="translate(-42.692 -8.218)" fill="#afc536"/>
      </g>
    </g>
  </g>
</svg>
