<svg width="60" height="66" viewBox="0 0 60 66" fill="none" xmlns="http://www.w3.org/2000/svg">
<path fill-rule="evenodd" clip-rule="evenodd" d="M52.0051 30.7377C52.0051 30.7648 51.9921 30.792 51.9921 30.8191C51.9791 30.8869 51.9399 31.0904 51.8746 31.4024V31.4295C51.5482 32.9488 51.0653 34.4274 50.4255 35.8518C50.4126 35.8653 50.4126 35.8925 50.3994 35.906C47.9581 41.9154 42.6057 51.0855 30.9607 61.083C19.316 51.0855 13.9635 41.9154 11.5221 35.906C11.509 35.8925 11.509 35.8653 11.496 35.8518C10.8694 34.441 10.3863 32.9488 10.047 31.4295V31.4024C9.96858 31.0904 9.94247 30.8869 9.92941 30.8191C9.92941 30.792 9.91649 30.7648 9.91649 30.7241C9.65539 29.3269 9.52484 27.9161 9.52484 26.4918C9.52484 14.2153 19.1461 4.21777 30.9607 4.21777C42.7755 4.21777 52.3968 14.2153 52.3968 26.4918C52.3968 27.9297 52.2662 29.354 52.0051 30.7377ZM30.9607 0.568848C17.2009 0.568848 6.00003 12.2078 6.00003 26.5055C6.00003 28.1333 6.1435 29.7747 6.44376 31.3754C6.45695 31.4703 6.50904 31.7552 6.61348 32.2435C6.99207 33.9934 7.55342 35.7162 8.28463 37.3576C10.9738 43.9367 16.8876 54.0428 29.8641 64.8678C30.1905 65.1391 30.5821 65.2747 30.9738 65.2747C31.3654 65.2747 31.7571 65.1391 32.0835 64.8678C45.0469 54.0428 50.9739 43.9367 53.6631 37.3576C54.3943 35.7162 54.9557 34.007 55.3341 32.2435C55.4387 31.7552 55.4908 31.4703 55.504 31.3754C55.791 29.7747 55.9477 28.1333 55.9477 26.5055C55.9216 12.2078 44.7205 0.568848 30.9607 0.568848Z" fill="#333333"/>
<path fill-rule="evenodd" clip-rule="evenodd" d="M31 40.1082C24.5626 40.1082 19.3361 34.4584 19.3361 27.5294C19.3361 20.6005 24.5749 14.9507 31 14.9507C37.425 14.9507 42.6639 20.6005 42.6639 27.5294C42.6639 34.4584 37.4374 40.1082 31 40.1082ZM31 11.353C22.7339 11.353 16 18.6151 16 27.5295C16 36.4439 22.7339 43.706 31 43.706C39.2661 43.706 46 36.4439 46 27.5295C46 18.6151 39.2661 11.353 31 11.353Z" fill="#333333"/>
</svg>
