<svg width="32" height="30" viewBox="0 0 32 30" fill="none" xmlns="http://www.w3.org/2000/svg">
<path d="M30.3338 26.3391H29.5101C28.9386 24.9812 28.9383 23.6563 29.5094 22.3052H30.3338C31.2526 22.3052 32 21.5578 32 20.639C32 19.7202 31.2526 18.9727 30.3338 18.9727H27.0189C27.4409 18.4907 27.6974 17.8606 27.6974 17.1711V11.9505C27.6974 10.4401 26.4687 9.21137 24.9584 9.21137H23.6104C23.7248 8.98337 23.7896 8.72631 23.7896 8.45431C23.7896 7.51887 23.0294 6.75781 22.0951 6.75781H21.6314C21.2176 5.73487 21.2173 4.73575 21.6307 3.71937H22.0951C23.0294 3.71937 23.7896 2.95831 23.7896 2.02287C23.7896 1.0885 23.0294 0.328308 22.0951 0.328308H6.28237C3.57437 0.328308 1.37125 2.53062 1.37125 5.23762C1.37125 6.54675 1.88287 7.77931 2.81175 8.70825C2.99644 8.89293 3.19356 9.06037 3.40044 9.21131H3.03744C2.11869 9.21131 1.37125 9.95875 1.37125 10.8776C1.37125 11.7964 2.11869 12.5438 3.03744 12.5438H3.86181C4.43294 13.8947 4.43275 15.2197 3.86119 16.5776H3.03744C2.11869 16.5776 1.37125 17.3251 1.37125 18.2439C1.37125 18.5954 1.48094 18.9216 1.66744 19.1906C0.688188 19.6084 0 20.5812 0 21.7119V26.9326C0 28.4429 1.22787 29.6716 2.73712 29.6716H30.3337C31.2525 29.6716 31.9999 28.9242 31.9999 28.0054C32 27.0866 31.2526 26.3391 30.3338 26.3391ZM30.3338 19.9102C30.7356 19.9102 31.0625 20.2372 31.0625 20.639C31.0625 21.0408 30.7356 21.3677 30.3338 21.3677H21.874C21.6151 21.3677 21.4053 21.5776 21.4053 21.8365C21.4053 22.0954 21.6151 22.3052 21.874 22.3052H28.5039C28.3207 22.8197 28.2087 23.3362 28.1664 23.8534C28.1664 23.8534 27.9791 24.7812 28.5049 26.3391H3.46813C3.39463 26.3391 3.3325 26.277 3.3325 26.2034V22.4409C3.3325 22.3674 3.39463 22.3053 3.46813 22.3053H8.11194L8.11225 23.8448C8.08269 24.3057 8.30775 24.4873 8.44594 24.5548C8.586 24.6233 8.87375 24.6896 9.22781 24.366C9.23025 24.3637 9.23269 24.3615 9.23506 24.3592L10.5453 23.1096L11.8556 24.3592C11.8579 24.3616 11.8604 24.3638 11.8628 24.366C12.0701 24.5554 12.2546 24.6114 12.4003 24.6114C12.5043 24.6114 12.5886 24.5828 12.6471 24.554C12.7854 24.4859 13.0102 24.3034 12.9784 23.8436L12.979 22.3053H19.566C19.8249 22.3053 20.0347 22.0954 20.0347 21.8366C20.0347 21.5777 19.8249 21.3678 19.566 21.3678H12.9793L12.9799 19.9103H30.3338V19.9102ZM5.20512 14.0921C5.16287 13.5749 5.04869 13.0585 4.86562 12.5439H24.2294C24.3029 12.5439 24.3651 12.6061 24.3651 12.6796V16.4421C24.3651 16.5156 24.3029 16.5777 24.2294 16.5777H12.9813L12.9819 15.0295H16.2625C16.5214 15.0295 16.7313 14.8196 16.7313 14.5607C16.7313 14.3019 16.5214 14.092 16.2625 14.092H5.20512V14.0921ZM8.11075 16.5777H4.86456C5.0475 16.0625 5.16188 15.5461 5.20463 15.0296H8.11044L8.11075 16.5777ZM12.0444 15.0296L12.0411 23.2406L10.8687 22.1225C10.6877 21.9497 10.4028 21.9497 10.2217 22.1225L9.04956 23.2405L9.04788 15.0296H12.0444V15.0296ZM2.30875 5.23768C2.30875 3.04762 4.09131 1.26587 6.28237 1.26587H22.0951C22.5125 1.26587 22.8521 1.6055 22.8521 2.02293C22.8521 2.44143 22.5124 2.78193 22.0951 2.78193H13.4539C13.1951 2.78193 12.9852 2.99181 12.9852 3.25068C12.9852 3.50956 13.1951 3.71943 13.4539 3.71943H20.6319C20.301 4.72781 20.3014 5.74512 20.6331 6.75787H6.28237C5.87925 6.75787 5.49756 6.59906 5.20944 6.31237C4.92106 6.0225 4.76225 5.64087 4.76225 5.23768C4.76225 4.4005 5.44419 3.71943 6.28237 3.71943H11.1459C11.4048 3.71943 11.6147 3.50956 11.6147 3.25068C11.6147 2.99181 11.4048 2.78193 11.1459 2.78193H6.28237C4.92725 2.78193 3.82475 3.88356 3.82475 5.23768C3.82475 5.89037 4.0805 6.50687 4.5465 6.97525C5.01325 7.43962 5.62969 7.69537 6.28237 7.69537H22.0951C22.5125 7.69537 22.8521 8.03587 22.8521 8.45437C22.8521 8.87181 22.5124 9.21143 22.0951 9.21143H6.28237C5.22369 9.21143 4.22656 8.79737 3.47469 8.04543C2.72281 7.29356 2.30875 6.29643 2.30875 5.23768ZM3.03744 11.6064C2.63562 11.6064 2.30875 11.2796 2.30875 10.8777C2.30875 10.4759 2.63562 10.1489 3.03744 10.1489H24.9584C25.9518 10.1489 26.7599 10.9571 26.7599 11.9506V17.1712C26.7599 18.1646 25.9517 18.9728 24.9584 18.9728H12.9803L12.9809 17.5153H24.2293C24.8211 17.5153 25.3025 17.0339 25.3025 16.4422V12.6797C25.3025 12.0879 24.8211 11.6066 24.2293 11.6066H3.03744V11.6064ZM3.03744 17.5152H8.11094L8.11125 18.9727H3.0375C2.63569 18.9727 2.30881 18.6458 2.30881 18.244C2.30875 17.8422 2.63562 17.5152 3.03744 17.5152ZM30.3338 28.7341H2.73712C1.74481 28.7341 0.9375 27.9259 0.9375 26.9326V21.7119C0.9375 20.7184 1.74481 19.9102 2.73712 19.9102H8.11137L8.11169 21.3677H3.46813C2.87638 21.3677 2.395 21.8492 2.395 22.4409V26.2034C2.395 26.7951 2.87644 27.2766 3.46813 27.2766H30.3338C30.7356 27.2766 31.0625 27.6035 31.0625 28.0053C31.0625 28.4071 30.7356 28.7341 30.3338 28.7341Z" fill="black"/>
</svg>
