<svg width="34" height="35" viewBox="0 0 34 35" fill="none" xmlns="http://www.w3.org/2000/svg">
<path fill-rule="evenodd" clip-rule="evenodd" d="M8.67691 3.33026H14.9086C15.1748 3.33026 15.3906 3.54835 15.3906 3.8175V12.8738C15.3906 13.1429 15.1749 13.361 14.9086 13.361H8.67691C8.41068 13.361 8.19496 13.1429 8.19496 12.8738V3.8175C8.19496 3.54835 8.41068 3.33026 8.67691 3.33026ZM9.15887 12.3866H14.4267V4.30475H9.15887V12.3866Z" fill="black"/>
<path fill-rule="evenodd" clip-rule="evenodd" d="M25.2948 6.53595H17.2456C16.9793 6.53595 16.7636 6.31786 16.7636 6.04878V3.8175C16.7636 3.54835 16.9793 3.33026 17.2456 3.33026H25.2948C25.5611 3.33026 25.7768 3.54835 25.7768 3.8175V6.04871C25.7768 6.31786 25.5611 6.53595 25.2948 6.53595ZM24.8129 4.30475H17.7275V5.56156H24.8129V4.30475Z" fill="black"/>
<path d="M17.2456 8.89854H25.2948C25.5611 8.89854 25.7768 8.68046 25.7768 8.41131C25.7768 8.14216 25.5611 7.92407 25.2948 7.92407H17.2456C16.9793 7.92407 16.7636 8.14216 16.7636 8.41131C16.7636 8.68046 16.9793 8.89854 17.2456 8.89854Z" fill="black"/>
<path d="M17.2456 10.9986H25.2948C25.5611 10.9986 25.7768 10.7805 25.7768 10.5113C25.7768 10.2422 25.5611 10.0241 25.2948 10.0241H17.2456C16.9793 10.0241 16.7636 10.2422 16.7636 10.5113C16.7636 10.7805 16.9793 10.9986 17.2456 10.9986Z" fill="black"/>
<path d="M17.2456 13.3611H25.2948C25.5611 13.3611 25.7768 13.143 25.7768 12.8738C25.7768 12.6047 25.5611 12.3866 25.2948 12.3866H17.2456C16.9793 12.3866 16.7636 12.6047 16.7636 12.8738C16.7636 13.143 16.9793 13.3611 17.2456 13.3611Z" fill="black"/>
<path d="M12.8688 15.2363C12.8688 15.5054 13.0845 15.7235 13.3507 15.7235H25.2948C25.5611 15.7235 25.7768 15.5054 25.7768 15.2363C25.7768 14.9671 25.5611 14.749 25.2948 14.749H13.3507C13.0845 14.749 12.8688 14.9672 12.8688 15.2363Z" fill="black"/>
<path d="M8.67691 15.7235H11.0138C11.28 15.7235 11.4958 15.5054 11.4958 15.2363C11.4958 14.9671 11.28 14.749 11.0138 14.749H8.67691C8.41068 14.749 8.19496 14.9671 8.19496 15.2363C8.19496 15.5054 8.41075 15.7235 8.67691 15.7235Z" fill="black"/>
<path fill-rule="evenodd" clip-rule="evenodd" d="M15.2034 20.4547H13.9025C13.6363 20.4547 13.4206 20.6727 13.4206 20.9419V25.4695C13.4206 25.5991 13.4717 25.7234 13.5625 25.8148C13.6528 25.9057 13.7751 25.9568 13.9025 25.9568H13.9047L13.906 25.9568C13.9508 25.9566 15.1073 25.9514 15.4306 25.9514C16.361 25.9514 17.1181 25.1862 17.1181 24.2455C17.1181 23.6837 16.8479 23.1846 16.4322 22.8736C16.6105 22.6227 16.7159 22.3154 16.7159 21.9837C16.7159 21.1406 16.0374 20.4547 15.2034 20.4547ZM15.2034 21.4291C15.5059 21.4291 15.752 21.678 15.752 21.9837C15.752 22.2895 15.5059 22.5383 15.2034 22.5383C15.1059 22.5383 14.9206 22.5389 14.7198 22.5396H14.3845V21.4291H15.2034ZM14.3845 24.9803C14.7569 24.9787 15.2392 24.977 15.4306 24.977C15.8296 24.977 16.1542 24.6488 16.1542 24.2456C16.1542 23.8422 15.8296 23.5141 15.4306 23.5141H14.7223L14.3845 23.5154V24.9803Z" fill="black"/>
<path d="M6.02219 22.7844C5.45959 22.5746 4.93677 22.3458 4.78967 22.2806C4.67638 22.1927 4.62189 22.0552 4.64297 21.9066C4.65646 21.8117 4.72342 21.5802 5.05385 21.4796C5.7264 21.2749 6.34176 21.7688 6.35808 21.7821C6.56191 21.9533 6.86432 21.9263 7.03506 21.721C7.20632 21.515 7.18004 21.2076 6.97627 21.0345C6.93527 20.9997 5.95947 20.1862 4.77586 20.5465C4.18691 20.726 3.77044 21.194 3.68889 21.7681C3.61261 22.3049 3.84279 22.8212 4.28934 23.1156C4.31061 23.1296 4.33297 23.1419 4.35617 23.1523C4.38194 23.164 4.99646 23.4405 5.68861 23.6986C5.90337 23.7787 6.39529 24.0076 6.3255 24.4027C6.27518 24.6876 5.94013 24.9824 5.46653 24.9824C4.99974 24.9824 4.54979 24.7913 4.26299 24.4713C4.08416 24.2718 3.77943 24.2569 3.58222 24.4375C3.385 24.6181 3.36996 24.9263 3.54874 25.1257C4.01533 25.6462 4.73222 25.9569 5.46659 25.9569C6.37267 25.9569 7.133 25.3754 7.2745 24.5741C7.38034 23.9741 7.10704 23.1889 6.02219 22.7844Z" fill="black"/>
<path d="M8.7413 20.4547C8.47507 20.4547 8.25934 20.6727 8.25934 20.9419V24.0574C8.25934 24.7212 8.56195 25.2393 9.18444 25.6415C9.50748 25.8502 9.87235 25.9563 10.2688 25.9568H10.2719C10.6141 25.9568 10.9352 25.8817 11.2261 25.7336C12.1429 25.2668 12.3353 24.5627 12.3353 24.0542V20.9419C12.3353 20.6727 12.1196 20.4547 11.8534 20.4547C11.5871 20.4547 11.3714 20.6727 11.3714 20.9419V24.0542C11.3714 24.2937 11.3057 24.602 10.7925 24.8632C10.6373 24.9423 10.4621 24.9823 10.2719 24.9823C10.2713 24.9823 10.2706 24.9823 10.2701 24.9823C10.0572 24.982 9.87183 24.929 9.70347 24.8203C9.36244 24.6 9.22332 24.379 9.22332 24.0574V20.9419C9.22325 20.6728 9.00753 20.4547 8.7413 20.4547Z" fill="black"/>
<path fill-rule="evenodd" clip-rule="evenodd" d="M31.6566 17.0089C32.6381 17.0089 33.4366 17.8165 33.4366 18.8091V27.5974C33.4366 27.6053 33.4361 27.613 33.4361 27.6209V27.6215C33.4233 28.6078 32.6302 29.4022 31.6566 29.4022H30.8548L29.5523 30.1716L27.4221 33.857C27.3351 34.0075 27.1761 34.0985 27.0061 34.0985C26.9968 34.0985 26.9875 34.0982 26.9782 34.0977C26.9721 34.0973 26.9661 34.0968 26.96 34.0962C26.773 34.0782 26.6135 33.952 26.5513 33.7728L25.0323 29.4022H7.60969C7.34346 29.4022 7.12773 29.1841 7.12773 28.915C7.12773 28.6458 7.34346 28.4277 7.60969 28.4277H24.6937L23.777 25.7902C23.7128 25.8509 23.6318 25.8949 23.539 25.9128C23.2781 25.9637 23.0251 25.7901 22.9752 25.5258L22.4426 22.7081L21.6461 25.5325C21.6445 25.5382 21.6428 25.5439 21.641 25.5495C21.5632 25.7919 21.3415 25.9556 21.0894 25.9569H21.0863C20.8354 25.9569 20.6136 25.7957 20.5336 25.5551C20.5327 25.5523 20.5317 25.5494 20.5309 25.5466C20.5299 25.5437 20.529 25.5407 20.5282 25.5377L19.7033 22.7113L19.2017 25.5208C19.1545 25.7856 18.9035 25.9614 18.6418 25.9137C18.3799 25.8659 18.2059 25.6125 18.2531 25.3477L19.0403 20.9386C19.0913 20.6702 19.3108 20.4741 19.5749 20.4562C19.8394 20.4382 20.0825 20.6031 20.1667 20.8569C20.1686 20.8626 20.1704 20.8682 20.172 20.874L21.08 23.9852L21.9559 20.8791C21.9566 20.8763 21.9574 20.8735 21.9583 20.8708C21.9591 20.8679 21.96 20.8651 21.9609 20.8623C22.0426 20.6079 22.2841 20.4407 22.5483 20.4556C22.8126 20.4706 23.0341 20.6643 23.087 20.9265L23.6443 23.8745C23.7405 23.8451 23.845 23.845 23.9435 23.88L25.0401 24.2695V20.9419C25.0401 20.6727 25.2558 20.4546 25.5221 20.4546C25.7883 20.4546 26.004 20.6727 26.004 20.9419V24.6119L28.3425 25.4425V21.4292H27.5927C27.3265 21.4292 27.1108 21.2111 27.1108 20.9419C27.1108 20.6728 27.3265 20.4547 27.5927 20.4547H30.066C30.3323 20.4547 30.548 20.6728 30.548 20.9419C30.548 21.2111 30.3323 21.4292 30.066 21.4292H29.3064V25.4696C29.3064 25.5754 29.2726 25.673 29.216 25.7529L32.4727 26.9096V18.8091C32.4727 18.3538 32.1066 17.9834 31.6566 17.9834H26.712C26.4458 17.9834 26.2301 17.7653 26.2301 17.4961C26.2301 17.227 26.4458 17.0089 26.712 17.0089H27.2796V1.81102H6.69224V6.09174C6.69224 6.36089 6.47652 6.57898 6.21029 6.57898C5.94406 6.57898 5.72833 6.36089 5.72833 6.09174V1.32378C5.72833 1.05463 5.94406 0.836548 6.21029 0.836548H27.7616C28.0278 0.836548 28.2436 1.05463 28.2436 1.32378V17.0089H31.6566ZM28.7839 29.5696C28.8258 29.4973 28.8853 29.4371 28.9568 29.3948L31.8122 27.708L24.5713 25.136L27.1154 32.4563L28.7839 29.5696Z" fill="black"/>
<path d="M5.35996 28.4278H2.31523C1.86522 28.4278 1.49912 28.0577 1.49912 27.6027V18.8091C1.49912 18.3538 1.86522 17.9834 2.31523 17.9834H24.4584C24.7247 17.9834 24.9404 17.7653 24.9404 17.4962C24.9404 17.227 24.7247 17.0089 24.4584 17.0089H6.69221V8.3681C6.69221 8.09895 6.47649 7.88086 6.21026 7.88086C5.94402 7.88086 5.7283 8.09895 5.7283 8.3681V17.0089H2.31523C1.33372 17.0089 0.535215 17.8165 0.535215 18.8091V27.6027C0.535215 28.595 1.33372 29.4023 2.31523 29.4023H5.35996C5.62619 29.4023 5.84191 29.1842 5.84191 28.915C5.84191 28.6459 5.62619 28.4278 5.35996 28.4278Z" fill="black"/>
</svg>
