<svg width="34" height="38" viewBox="0 0 34 38" fill="none" xmlns="http://www.w3.org/2000/svg">
<mask id="path-1-inside-1" fill="white">
<path fill-rule="evenodd" clip-rule="evenodd" d="M11.7888 20.7051C7.19624 20.7051 3.47327 24.4724 3.47327 29.0649C3.47327 29.7281 3.55091 30.3742 3.6976 30.9941H30.6668C30.8135 30.3742 30.8911 29.7281 30.8911 29.0649C30.8911 24.4724 27.1681 20.7051 22.5756 20.7051H11.7888ZM22.5926 37.4247H11.7718C11.7774 37.4248 11.7831 37.4248 11.7888 37.4248H22.5756C22.5813 37.4248 22.5869 37.4248 22.5926 37.4247Z"/>
</mask>
<path d="M3.6976 30.9941L1.26999 31.5685L1.72436 33.4887H3.6976V30.9941ZM30.6668 30.9941V33.4887H32.64L33.0944 31.5685L30.6668 30.9941ZM22.5926 37.4247L22.5976 39.9194L22.5926 34.9301V37.4247ZM11.7718 37.4247V34.9301L11.7667 39.9194L11.7718 37.4247ZM5.96791 29.0649C5.96791 25.8329 8.59123 23.1997 11.7888 23.1997V18.2104C5.80125 18.2104 0.978619 23.1119 0.978619 29.0649H5.96791ZM6.12521 30.4197C6.02263 29.9861 5.96791 29.5329 5.96791 29.0649H0.978619C0.978619 29.9234 1.07919 30.7622 1.26999 31.5685L6.12521 30.4197ZM3.6976 33.4887H30.6668V28.4995H3.6976V33.4887ZM28.3965 29.0649C28.3965 29.5329 28.3417 29.9861 28.2392 30.4197L33.0944 31.5685C33.2852 30.7622 33.3858 29.9234 33.3858 29.0649H28.3965ZM22.5756 23.1997C25.7731 23.1997 28.3965 25.8329 28.3965 29.0649H33.3858C33.3858 23.1119 28.5631 18.2104 22.5756 18.2104V23.1997ZM11.7888 23.1997H22.5756V18.2104H11.7888V23.1997ZM22.5926 34.9301H11.7718V39.9194H22.5926V34.9301ZM11.7888 34.9301C11.7848 34.9301 11.7808 34.9301 11.7768 34.9301L11.7667 39.9194C11.7741 39.9194 11.7814 39.9194 11.7888 39.9194V34.9301ZM22.5756 34.9301H11.7888V39.9194H22.5756V34.9301ZM22.5875 34.9301C22.5836 34.9301 22.5796 34.9301 22.5756 34.9301V39.9194C22.583 39.9194 22.5903 39.9194 22.5976 39.9194L22.5875 34.9301Z" fill="black" mask="url(#path-1-inside-1)"/>
<path d="M22.1662 11.7021C22.1662 14.6021 19.898 16.8855 17.1822 16.8855C14.4663 16.8855 12.1982 14.6021 12.1982 11.7021C12.1982 8.80215 14.4663 6.51881 17.1822 6.51881C19.898 6.51881 22.1662 8.80215 22.1662 11.7021Z" stroke="black" stroke-width="2.49465"/>
</svg>
