<svg xmlns="http://www.w3.org/2000/svg" viewBox="0 0 70.34 40.13"><defs><style>.cls-1{fill:#9b999a;}.cls-2{fill:#0d8dc8;}.cls-3{fill:#f2b92a;}.cls-4{fill:#afc536;}.cls-5,.cls-6{fill:#19a6df;}.cls-6{fill-rule:evenodd;}.cls-7{fill:#fff;}</style></defs><title>Asset 7</title><g id="Layer_2" data-name="Layer 2"><g id="Layer_1-2" data-name="Layer 1"><path class="cls-1" d="M2.51,36.19a1.38,1.38,0,0,1,.54.53,1.64,1.64,0,0,1,.19.81,1.58,1.58,0,0,1-.19.8,1.45,1.45,0,0,1-.53.54,1.51,1.51,0,0,1-.76.19,1.15,1.15,0,0,1-.93-.38V39H0V34.91H.86v1.45a1.16,1.16,0,0,1,.9-.36,1.47,1.47,0,0,1,.75.19m-.35,1.94a1,1,0,0,0,0-1.2.74.74,0,0,0-.55-.22.7.7,0,0,0-.54.22.93.93,0,0,0,0,1.2.7.7,0,0,0,.54.22.74.74,0,0,0,.55-.22"/><path class="cls-1" d="M6.71,37.77H4.46a.71.71,0,0,0,.29.44.93.93,0,0,0,.56.16,1.09,1.09,0,0,0,.42-.07,1,1,0,0,0,.33-.22l.46.5a1.55,1.55,0,0,1-1.23.48,1.85,1.85,0,0,1-.89-.2,1.41,1.41,0,0,1-.59-.54,1.51,1.51,0,0,1-.22-.79,1.53,1.53,0,0,1,.21-.79,1.51,1.51,0,0,1,.57-.55A1.67,1.67,0,0,1,5.18,36a1.59,1.59,0,0,1,.79.19,1.36,1.36,0,0,1,.56.53,1.69,1.69,0,0,1,.2.82s0,.09,0,.23m-2-1a.68.68,0,0,0-.25.45H5.92a.68.68,0,0,0-.25-.45.72.72,0,0,0-.48-.17.73.73,0,0,0-.49.17"/><polygon class="cls-1" points="13.65 36.04 12.57 39.01 11.74 39.02 11.07 37.17 10.38 39.02 9.55 39.02 8.48 36.04 9.29 36.04 9.99 38.05 10.72 36.04 11.45 36.04 12.16 38.05 12.88 36.04 13.65 36.04"/><path class="cls-1" d="M16.75,36.32a1.32,1.32,0,0,1,.34,1V39h-.86V37.44a.82.82,0,0,0-.15-.53.61.61,0,0,0-.45-.17.7.7,0,0,0-.52.2.85.85,0,0,0-.2.6V39h-.86v-4.1h.86v1.44a1.32,1.32,0,0,1,.42-.27,1.51,1.51,0,0,1,.53-.09,1.21,1.21,0,0,1,.89.33"/><path class="cls-1" d="M20.13,36.32a1.29,1.29,0,0,1,.38,1V39H19.7v-.37a1,1,0,0,1-.91.42,1.32,1.32,0,0,1-.59-.12.89.89,0,0,1-.39-.32.83.83,0,0,1-.13-.47A.77.77,0,0,1,18,37.5a1.59,1.59,0,0,1,1-.24h.68a.53.53,0,0,0-.17-.43.74.74,0,0,0-.51-.15,1.49,1.49,0,0,0-.47.07,1.43,1.43,0,0,0-.39.2l-.31-.6a1.93,1.93,0,0,1,.58-.26,2.37,2.37,0,0,1,.7-.1,1.53,1.53,0,0,1,1.06.33m-.73,2a.6.6,0,0,0,.24-.3v-.3h-.59c-.35,0-.53.11-.53.35a.3.3,0,0,0,.13.26.64.64,0,0,0,.36.1.74.74,0,0,0,.39-.11"/><path class="cls-1" d="M23.2,38.87a.89.89,0,0,1-.31.14,1.61,1.61,0,0,1-.39,0,1.16,1.16,0,0,1-.82-.27,1,1,0,0,1-.29-.79V36.77h-.46V36.1h.46v-.72h.86v.72H23v.66h-.74V38a.39.39,0,0,0,.1.29.37.37,0,0,0,.27.1.56.56,0,0,0,.35-.11Z"/><path class="cls-1" d="M28.21,36l-1.35,3.16a1.54,1.54,0,0,1-.5.73,1.23,1.23,0,0,1-.73.21,1.48,1.48,0,0,1-.46-.08,1,1,0,0,1-.37-.19l.32-.62a.59.59,0,0,0,.23.14.74.74,0,0,0,.25,0,.44.44,0,0,0,.29-.09.72.72,0,0,0,.2-.28v0l-1.29-3h.89l.84,2,.84-2Z"/><path class="cls-1" d="M29.05,38.86a1.46,1.46,0,0,1-.58-.55,1.59,1.59,0,0,1,0-1.58,1.44,1.44,0,0,1,.58-.54,1.68,1.68,0,0,1,.84-.2,1.74,1.74,0,0,1,.84.19,1.64,1.64,0,0,1,.59.55,1.48,1.48,0,0,1,.2.79,1.41,1.41,0,0,1-.2.79,1.51,1.51,0,0,1-.58.54,1.68,1.68,0,0,1-.84.2,1.8,1.8,0,0,1-.85-.19m1.39-.74a1,1,0,0,0,0-1.2.7.7,0,0,0-.54-.22.71.71,0,0,0-.55.22.93.93,0,0,0,0,1.2.71.71,0,0,0,.55.22.7.7,0,0,0,.54-.22"/><path class="cls-1" d="M35.1,36v3h-.82v-.36a1.12,1.12,0,0,1-.41.3,1.41,1.41,0,0,1-1.44-.24,1.32,1.32,0,0,1-.35-1V36H33v1.56c0,.47.2.71.6.71a.63.63,0,0,0,.5-.2.86.86,0,0,0,.19-.6V36Z"/><path class="cls-1" d="M39.84,34.94V39H39V38.7a1.12,1.12,0,0,1-.93.39,1.51,1.51,0,0,1-.76-.19,1.31,1.31,0,0,1-.53-.54,1.72,1.72,0,0,1,0-1.61,1.45,1.45,0,0,1,.53-.54,1.61,1.61,0,0,1,.76-.19,1.12,1.12,0,0,1,.89.36V34.94Zm-1.06,3.22a.81.81,0,0,0,.22-.6.79.79,0,0,0-.22-.6.71.71,0,0,0-.54-.23.75.75,0,0,0-.55.23,1,1,0,0,0,0,1.2.74.74,0,0,0,.55.22.7.7,0,0,0,.54-.22"/><path class="cls-1" d="M42,36.09a1.66,1.66,0,0,1,.61-.11v.8h-.2a.79.79,0,0,0-.58.21.82.82,0,0,0-.21.62V39h-.86V36h.82v.39a1.14,1.14,0,0,1,.42-.33"/><path class="cls-1" d="M46.36,37.76H44.11a.69.69,0,0,0,.29.43.93.93,0,0,0,.56.17,1.25,1.25,0,0,0,.41-.07,1,1,0,0,0,.34-.22l.46.49a1.52,1.52,0,0,1-1.23.49,2,2,0,0,1-.89-.2,1.43,1.43,0,0,1-.6-.54,1.53,1.53,0,0,1-.21-.79,1.48,1.48,0,0,1,.21-.79,1.44,1.44,0,0,1,.57-.55,1.68,1.68,0,0,1,.81-.2,1.62,1.62,0,0,1,.79.19,1.53,1.53,0,0,1,.56.54,1.62,1.62,0,0,1,.2.81s0,.09,0,.24m-2-1a.71.71,0,0,0-.24.46h1.46a.77.77,0,0,0-.24-.45.72.72,0,0,0-.49-.16.74.74,0,0,0-.49.16"/><path class="cls-1" d="M49.29,36.31a1.25,1.25,0,0,1,.37,1V39h-.8v-.37a1,1,0,0,1-.91.42,1.4,1.4,0,0,1-.6-.12.92.92,0,0,1-.38-.32.83.83,0,0,1-.13-.47.77.77,0,0,1,.31-.65,1.58,1.58,0,0,1,1-.24h.69a.56.56,0,0,0-.17-.43.79.79,0,0,0-.52-.15,1.47,1.47,0,0,0-.46.07,1.19,1.19,0,0,0-.39.2l-.31-.6a1.82,1.82,0,0,1,.58-.26,2.37,2.37,0,0,1,.7-.1,1.55,1.55,0,0,1,1.06.33m-.73,2a.6.6,0,0,0,.24-.3v-.3h-.59c-.36,0-.53.11-.53.35a.3.3,0,0,0,.13.26.62.62,0,0,0,.36.09.76.76,0,0,0,.39-.1"/><path class="cls-1" d="M55.14,36.31a1.34,1.34,0,0,1,.33,1V39h-.86V37.43a.8.8,0,0,0-.15-.53.51.51,0,0,0-.42-.17.62.62,0,0,0-.48.19.85.85,0,0,0-.17.59V39h-.87V37.43c0-.47-.19-.7-.56-.7a.62.62,0,0,0-.48.19.85.85,0,0,0-.17.59V39h-.87V36h.83v.35a1.06,1.06,0,0,1,.4-.29,1.32,1.32,0,0,1,.53-.1,1.2,1.2,0,0,1,.57.13,1,1,0,0,1,.41.36,1.16,1.16,0,0,1,.46-.36,1.39,1.39,0,0,1,.61-.13,1.21,1.21,0,0,1,.89.33"/><path class="cls-2" d="M11.19,20a5.39,5.39,0,0,1,1.42,4l0,7L9.1,31l0-6.46a3.17,3.17,0,0,0-.65-2.16,2.31,2.31,0,0,0-1.85-.71,2.79,2.79,0,0,0-2.13.84A3.41,3.41,0,0,0,3.66,25l0,6-3.55,0L.06,14,3.6,14l0,6.11A4.78,4.78,0,0,1,5.33,19a6.44,6.44,0,0,1,2.18-.39A5,5,0,0,1,11.19,20"/><path class="cls-3" d="M27.88,25.82l-9.26,0a2.87,2.87,0,0,0,1.19,1.79,3.88,3.88,0,0,0,2.33.65A4.68,4.68,0,0,0,23.83,28a4.1,4.1,0,0,0,1.37-.91l1.9,2a6.37,6.37,0,0,1-5,2,8,8,0,0,1-3.66-.78,6,6,0,0,1-2.47-2.23,6.11,6.11,0,0,1-.88-3.25,6.23,6.23,0,0,1,.83-3.24,6,6,0,0,1,2.33-2.26,6.85,6.85,0,0,1,3.33-.83,6.93,6.93,0,0,1,3.26.76,5.64,5.64,0,0,1,2.29,2.2,6.64,6.64,0,0,1,.85,3.35c0,.05,0,.36-.06,1m-8.32-3.89a2.82,2.82,0,0,0-1,1.87l6,0a2.89,2.89,0,0,0-1-1.85,3,3,0,0,0-2-.69,3.06,3.06,0,0,0-2,.7"/><rect class="cls-4" x="30.29" y="14.04" width="3.55" height="16.87" transform="translate(-0.11 0.16) rotate(-0.29)"/><rect class="cls-5" x="36.25" y="14.01" width="3.55" height="16.87" transform="translate(-0.11 0.19) rotate(-0.29)"/><path class="cls-3" d="M45.48,30.21A5.94,5.94,0,0,1,43.08,28a6.57,6.57,0,0,1,0-6.5,6,6,0,0,1,2.39-2.25,7.88,7.88,0,0,1,6.92,0,6.23,6.23,0,0,1,.06,11,7.86,7.86,0,0,1-6.93,0m5.7-3.05A3.46,3.46,0,0,0,52,24.69a3.48,3.48,0,0,0-.89-2.47,2.93,2.93,0,0,0-2.24-.9,3,3,0,0,0-2.25.93,3.36,3.36,0,0,0-.87,2.47,3.36,3.36,0,0,0,.9,2.46,3.2,3.2,0,0,0,4.49,0"/><path class="cls-6" d="M70.29,2a2,2,0,0,0-2.05-2l-24,.13a2,2,0,0,0-2,2.05l0,9.77a2,2,0,0,0,2.05,2h3.63l0,3,3.19-3,17.22-.09a2,2,0,0,0,2-2Z"/><path class="cls-7" d="M45.21,9.8l1.1-1.31a1.56,1.56,0,0,0,1.23.74c.59,0,.9-.36.9-1.05l0-3.07h-.91a1.57,1.57,0,0,1-1.57-1.56l4.47,0,0,4.51a2.46,2.46,0,0,1-2.75,2.79,3.08,3.08,0,0,1-2.48-1"/><path class="cls-7" d="M51.43,7.11a4,4,0,1,1,4,3.69,3.74,3.74,0,0,1-4-3.69m5.9,0a1.93,1.93,0,1,0-3.86,0,1.93,1.93,0,1,0,3.86,0"/><path class="cls-7" d="M67.24,8.64c0,1.23-1,2-2.93,2l-3.86,0,0-7.14,3.66,0c1.87,0,2.8.75,2.8,1.85a1.69,1.69,0,0,1-1,1.56,1.81,1.81,0,0,1,1.32,1.76m-4.82-3.7V6.32h1.39c.67,0,1-.24,1-.7s-.35-.68-1-.68Zm2.77,3.48c0-.49-.37-.72-1.06-.71h-1.7V9.16h1.7c.69,0,1.06-.24,1-.73"/></g></g></svg>